<?xml version="1.0" encoding="UTF-8" standalone="no"?>
<svg
   width="1826.5398"
   height="370.93567"
   viewBox="0 0 1826.5398 370.93567"
   fill="none"
   version="1.1"
   id="svg60"
   sodipodi:docname="logotip5555555.svg"
   inkscape:version="1.2.2 (b0a8486541, 2022-12-01)"
   inkscape:export-filename="logotip555555555.svg"
   inkscape:export-xdpi="96"
   inkscape:export-ydpi="96"
   xmlns:inkscape="http://www.inkscape.org/namespaces/inkscape"
   xmlns:sodipodi="http://sodipodi.sourceforge.net/DTD/sodipodi-0.dtd"
   xmlns="http://www.w3.org/2000/svg"
   xmlns:svg="http://www.w3.org/2000/svg">
  <defs
     id="defs64" />
  <sodipodi:namedview
     id="namedview62"
     pagecolor="#ffffff"
     bordercolor="#000000"
     borderopacity="0.25"
     inkscape:showpageshadow="2"
     inkscape:pageopacity="0.0"
     inkscape:pagecheckerboard="0"
     inkscape:deskcolor="#d1d1d1"
     showgrid="false"
     inkscape:zoom="0.084568299"
     inkscape:cx="-295.61905"
     inkscape:cy="934.15619"
     inkscape:window-width="1366"
     inkscape:window-height="705"
     inkscape:window-x="-8"
     inkscape:window-y="-8"
     inkscape:window-maximized="1"
     inkscape:current-layer="svg60" />
  <path
     fill-rule="evenodd"
     clip-rule="evenodd"
     d="m 1809.9471,247.52127 c -1.7548,3.65454 -3.3955,7.41419 -4.9221,11.27436 -1.4653,3.66371 -2.6717,7.42795 -3.6105,11.27435 -6.5804,21.33821 -11.4061,49.44193 0.9564,69.51024 6.1417,9.99987 3.9,9.91762 -6.326,12.84582 -13.3188,3.81904 -34.4199,4.63681 -45.7778,-4.68703 -7.019,-6.78837 -5.5801,-18.88499 -5.1722,-27.9941 0.272,-6.15338 1.0134,-12.15144 1.8514,-18.24092 -9.761,15.62787 -26.5586,43.39816 -45.8874,45.46756 -14.262,1.5441 -30.033,-4.56815 -36.0387,-18.86223 -5.6372,-13.41232 -3.3121,-31.13703 -0.5922,-45.03811 5.5669,-26.90231 23.6895,-69.21325 38.2409,-92.24626 0.2939,-0.47966 0.6185,-0.93648 0.9695,-1.37047 2.189,-3.65458 5.4705,-5.02505 9.8443,-4.1114 4.3738,0.91364 7.2165,1.82728 8.5282,2.74093 3.0621,0.91365 6.133,2.74094 9.2126,5.48187 1.7548,1.3659 3.9482,4.09771 6.5804,8.19997 2.6321,4.10227 2.6321,8.88521 0,14.34881 -10.6734,19.06322 -29.3311,56.58204 -24.3519,78.87508 2.9392,10.35156 8.6642,7.19496 14.6831,1.40695 1.8468,-1.82272 3.6016,-3.74138 5.2643,-5.75137 l 1.9214,-2.37088 c 9.8707,-12.58546 17.7365,-25.83337 25.769,-39.70249 7.3042,-12.79106 31.9193,-63.61718 48.2869,-60.30064 7.5193,1.52579 17.0258,11.49823 17.1617,19.82154 0.1361,8.32332 -9.695,22.20159 -13.3142,30.88123 -1.1889,2.81859 -2.2549,5.66921 -3.2771,8.54719 z m -149.8798,-62.54366 c 15.6746,-1.85013 21.9917,11.74949 17.9119,26.12114 -3.9483,13.90568 -12.494,29.62495 -17.7584,43.94182 -9.3748,25.49526 -16.6133,54.90092 -4.5799,80.79368 5.703,10.68049 7.9535,13.32098 -6.5321,17.15371 -14.0163,3.70942 -29.6558,3.2663 -42.4832,-4.19819 -9.4143,-5.788 -7.1156,-20.46572 -6.5804,-30.44732 1.395,-24.88314 5.8039,-43.62198 14.8761,-66.63217 3.22,-8.17254 2.856,-9.85822 -4.6194,-3.43073 -24.1677,20.7763 -34.5604,41.37449 -37.3987,73.62159 -0.2106,2.38464 -0.3772,4.7601 -0.5396,7.14924 -0.2764,4.32616 -0.4387,10.08213 -2.812,13.78238 -5.3652,7.47367 -22.4041,-2.22013 -26.8876,-8.14061 -8.0017,-10.56629 -1.0923,-21.42496 3.9747,-31.35626 2.5268,-4.95196 5.1414,-9.85831 7.7253,-14.77365 18.3506,-34.85564 30.9191,-52.38849 61.0662,-77.48177 11.8229,-9.8628 29.5241,-23.14721 44.6371,-26.10286 z m -156.3417,29.12247 c -6.8436,-5.1484 -17.5127,11.37488 -20.7019,16.14411 -6.0935,9.10448 -13.5119,23.97411 -15.5781,34.60888 -1.8557,9.54306 6.1768,2.38464 9.6513,-0.42936 12.5511,-10.19173 23.4744,-23.15181 28.1729,-39.25482 1.2195,-4.50884 1.1099,-7.32288 -1.5442,-11.06881 z m -61.4171,129.73772 c -28.3835,-16.30407 -21.7023,-54.23407 -10.9148,-79.94406 13.1608,-29.75285 34.8367,-58.01648 63.4702,-72.71704 l 1.3951,-0.69437 c 6.9972,-3.41704 13.9987,-5.24432 20.9959,-5.48187 6.984,-0.23298 13.8627,1.79531 19.6886,5.80621 3.8693,2.62674 6.6769,6.63765 7.8965,11.2744 1.3117,4.7875 1.531,10.02725 0.6537,15.71927 -0.9915,6.07117 -2.8735,11.94592 -5.5759,17.42322 -2.891,6.00265 -6.2952,11.72212 -10.1733,17.08517 -3.062,4.56824 -6.1241,8.21369 -9.1862,10.93175 l -4.5932,4.78296 c -1.5135,1.49839 -3.3033,2.66327 -5.2643,3.41705 -15.4596,11.25609 -19.2192,11.19669 -36.9204,15.28985 -8.1116,1.87294 -8.774,4.00632 -7.1551,12.22 4.15,18.72976 25.6021,14.70058 38.3637,9.48367 l 3.4174,-1.45726 c 21.9655,-10.23745 35.4289,-19.39211 52.4942,-37.09863 2.2768,-2.36629 11.0419,-10.9637 12.6694,-3.27081 2.6323,12.44382 -32.2659,47.00707 -41.5882,54.97408 -11.7745,10.05009 -24.2554,18.33226 -38.5041,24.0471 -17.574,6.66967 -34.1874,7.01686 -51.1517,-1.79069 z"
     fill="#3f2a2c"
     id="path20"
     style="stroke-width:0.447667" />
  <path
     fill-rule="evenodd"
     clip-rule="evenodd"
     d="m 1345.7037,238.70455 c 16.1,-17.59225 46.8875,-46.07516 69.3136,-52.63969 11.178,-3.27086 21.1275,0.77202 23.4087,13.33466 1.316,7.16755 -2.6936,17.1811 -5.7995,23.51267 -1.3117,3.18862 -2.7331,6.60565 -4.2642,10.24653 -1.531,3.64088 -3.1717,7.28633 -4.9221,10.93634 -4.637,12.83672 -8.888,22.47112 -11.6385,36.16666 -4.1062,21.18746 -6.3918,40.36944 5.2643,59.51037 5.9486,9.78055 0.522,10.50689 -8.6072,13.00573 -13.8846,3.78701 -41.8338,4.77837 -48.3879,-11.8774 -4.5536,-15.62336 1.7811,-50.47892 6.1416,-66.50429 2.1865,-7.77514 4.8235,-15.39955 7.8966,-22.84118 5.3301,-12.62655 -1.3424,-6.19909 -6.6419,-1.41154 -26.4356,24.43541 -34.0338,43.74076 -36.1308,80.01704 -0.8028,13.86004 -2.4479,19.11808 -17.3415,13.1337 -13.2617,-5.32651 -19.443,-15.10716 -13.3275,-29.34175 6.6725,-15.53194 16.995,-34.15667 25.8215,-48.57395 5.7732,-9.37856 11.9587,-18.45113 19.2148,-26.6739 z"
     fill="#3f2a2c"
     id="path22"
     style="stroke-width:0.447667" />
  <path
     fill-rule="evenodd"
     clip-rule="evenodd"
     d="m 1172.8583,168.48631 c 19.9562,-32.25169 58.8244,-85.046698 89.0548,-99.052888 15.0823,-6.98482 29.4671,-1.21972 34.3629,20.1596 2.7945,12.201718 -1.3775,29.931018 -4.8256,41.219108 -1.3862,5.6509 -2.8923,11.71293 -4.5186,18.17698 -1.6262,6.46404 -3.4042,12.94179 -5.3345,19.43325 -4.6765,22.68125 -9.2608,39.79383 -11.1955,63.72679 -2.7988,37.00263 -3.3296,70.35071 15.4903,101.92637 9.6162,16.14406 2.1715,18.06272 -10.1733,23.45322 -18.7761,8.19542 -57.4688,13.24791 -68.8749,-14.61832 -8.48,-26.38152 -4.4747,-87.21209 -0.6054,-115.35691 1.9556,-13.57221 4.5782,-27.03021 7.857,-40.31919 5.6679,-22.38432 -2.7199,-10.50693 -9.4275,-1.63543 -30.3577,41.19629 -39.6404,73.19674 -39.5133,125.87302 2.5582,7.58779 5.9062,14.865 9.9848,21.6945 9.6205,16.14415 2.1935,18.0628 -10.1734,23.45331 -18.7761,8.19533 -57.4689,13.24782 -68.8749,-14.61832 -8.4844,-26.38161 -4.4748,-87.21209 -0.6054,-115.35241 1.9464,-13.56306 4.5571,-27.0165 7.8218,-40.3009 5.6724,-22.38432 -2.7155,-10.50693 -9.4231,-1.63544 -23.5272,47.85677 -30.5375,78.85676 -39.2061,142.24548 -5.7425,41.96376 -3.4524,28.4007 -23.277,35.96571 -103.88705,39.66596 -16.96,-158.75053 18.4251,-197.88197 19.9562,-32.2517 71.0947,-82.488488 101.3384,-96.494678 15.0866,-6.9894 29.4714,-1.21973 34.3672,20.15958 2.7945,12.197168 -1.3774,29.931018 -4.8256,41.214548 -1.3806,5.65547 -2.8853,11.71295 -4.5141,18.17699 -1.6289,6.46404 -3.4087,12.94179 -5.339,19.43781 -0.5001,2.43487 -0.9989,4.80578 -1.496,7.11273 1.1376,-2.08312 2.3046,-4.13881 3.5009,-6.16254 z"
     fill="#3f2a2c"
     id="path24"
     style="stroke-width:0.447667" />
  <path
     fill-rule="evenodd"
     clip-rule="evenodd"
     d="m 1809.9471,247.52127 c -1.7548,3.65454 -3.3955,7.41419 -4.9221,11.27436 -1.4653,3.66371 -2.6717,7.42795 -3.6105,11.27435 -6.5804,21.33821 -11.4061,49.44193 0.9564,69.51024 6.1417,9.99987 3.9,9.91762 -6.326,12.84582 -13.3188,3.81904 -34.4199,4.63681 -45.7778,-4.68703 -7.019,-6.78837 -5.5801,-18.88499 -5.1722,-27.9941 0.272,-6.15338 1.0134,-12.15144 1.8514,-18.24092 -9.761,15.62787 -26.5586,43.39816 -45.8874,45.46756 -14.262,1.5441 -30.033,-4.56815 -36.0387,-18.86223 -5.6372,-13.41232 -3.3121,-31.13703 -0.5922,-45.03811 5.5669,-26.90231 23.6895,-69.21325 38.2409,-92.24626 0.2939,-0.47966 0.6185,-0.93648 0.9695,-1.37047 2.189,-3.65458 5.4705,-5.02505 9.8443,-4.1114 4.3738,0.91364 7.2165,1.82728 8.5282,2.74093 3.0621,0.91365 6.133,2.74094 9.2126,5.48187 1.7548,1.3659 3.9482,4.09771 6.5804,8.19997 2.6321,4.10227 2.6321,8.88521 0,14.34881 -10.6734,19.06322 -29.3311,56.58204 -24.3519,78.87508 2.9392,10.35156 8.6642,7.19496 14.6831,1.40695 1.8468,-1.82272 3.6016,-3.74138 5.2643,-5.75137 l 1.9214,-2.37088 c 9.8707,-12.58546 17.7365,-25.83337 25.769,-39.70249 7.3042,-12.79106 31.9193,-63.61718 48.2869,-60.30064 7.5193,1.52579 17.0258,11.49823 17.1617,19.82154 0.1361,8.32332 -9.695,22.20159 -13.3142,30.88123 -1.1889,2.81859 -2.2549,5.66921 -3.2771,8.54719 z m -149.8798,-62.54366 c 15.6746,-1.85013 21.9917,11.74949 17.9119,26.12114 -3.9483,13.90568 -12.494,29.62495 -17.7584,43.94182 -9.3748,25.49526 -16.6133,54.90092 -4.5799,80.79368 5.703,10.68049 7.9535,13.32098 -6.5321,17.15371 -14.0163,3.70942 -29.6558,3.2663 -42.4832,-4.19819 -9.4143,-5.788 -7.1156,-20.46572 -6.5804,-30.44732 1.395,-24.88314 5.8039,-43.62198 14.8761,-66.63217 3.22,-8.17254 2.856,-9.85822 -4.6194,-3.43073 -24.1677,20.7763 -34.5604,41.37449 -37.3987,73.62159 -0.2106,2.38464 -0.3772,4.7601 -0.5396,7.14924 -0.2764,4.32616 -0.4387,10.08213 -2.812,13.78238 -5.3652,7.47367 -22.4041,-2.22013 -26.8876,-8.14061 -8.0017,-10.56629 -1.0923,-21.42496 3.9747,-31.35626 2.5268,-4.95196 5.1414,-9.85831 7.7253,-14.77365 18.3506,-34.85564 30.9191,-52.38849 61.0662,-77.48177 11.8229,-9.8628 29.5241,-23.14721 44.6371,-26.10286 z m -156.3417,29.12247 c -6.8436,-5.1484 -17.5127,11.37488 -20.7019,16.14411 -6.0935,9.10448 -13.5119,23.97411 -15.5781,34.60888 -1.8557,9.54306 6.1768,2.38464 9.6513,-0.42936 12.5511,-10.19173 23.4744,-23.15181 28.1729,-39.25482 1.2195,-4.50884 1.1099,-7.32288 -1.5442,-11.06881 z m -61.4171,129.73772 c -28.3835,-16.30407 -21.7023,-54.23407 -10.9148,-79.94406 13.1608,-29.75285 34.8367,-58.01648 63.4702,-72.71704 l 1.3951,-0.69437 c 6.9972,-3.41704 13.9987,-5.24432 20.9959,-5.48187 6.984,-0.23298 13.8627,1.79531 19.6886,5.80621 3.8693,2.62674 6.6769,6.63765 7.8965,11.2744 1.3117,4.7875 1.531,10.02725 0.6537,15.71927 -0.9915,6.07117 -2.8735,11.94592 -5.5759,17.42322 -2.891,6.00265 -6.2952,11.72212 -10.1733,17.08517 -3.062,4.56824 -6.1241,8.21369 -9.1862,10.93175 l -4.5932,4.78296 c -1.5135,1.49839 -3.3033,2.66327 -5.2643,3.41705 -15.4596,11.25609 -19.2192,11.19669 -36.9204,15.28985 -8.1116,1.87294 -8.774,4.00632 -7.1551,12.22 4.15,18.72976 25.6021,14.70058 38.3637,9.48367 l 3.4174,-1.45726 c 21.9655,-10.23745 35.4289,-19.39211 52.4942,-37.09863 2.2768,-2.36629 11.0419,-10.9637 12.6694,-3.27081 2.6323,12.44382 -32.2659,47.00707 -41.5882,54.97408 -11.7745,10.05009 -24.2554,18.33226 -38.5041,24.0471 -17.574,6.66967 -34.1874,7.01686 -51.1517,-1.79069 z"
     fill="#3f2a2c"
     id="path48"
     style="stroke-width:0.447667" />
  <path
     fill-rule="evenodd"
     clip-rule="evenodd"
     d="m 1345.7037,238.70455 c 16.1,-17.59225 46.8875,-46.07516 69.3136,-52.63969 11.178,-3.27086 21.1275,0.77202 23.4087,13.33466 1.316,7.16755 -2.6936,17.1811 -5.7995,23.51267 -1.3117,3.18862 -2.7331,6.60565 -4.2642,10.24653 -1.531,3.64088 -3.1717,7.28633 -4.9221,10.93634 -4.637,12.83672 -8.888,22.47112 -11.6385,36.16666 -4.1062,21.18746 -6.3918,40.36944 5.2643,59.51037 5.9486,9.78055 0.522,10.50689 -8.6072,13.00573 -13.8846,3.78701 -41.8338,4.77837 -48.3879,-11.8774 -4.5536,-15.62336 1.7811,-50.47892 6.1416,-66.50429 2.1865,-7.77514 4.8235,-15.39955 7.8966,-22.84118 5.3301,-12.62655 -1.3424,-6.19909 -6.6419,-1.41154 -26.4356,24.43541 -34.0338,43.74076 -36.1308,80.01704 -0.8028,13.86004 -2.4479,19.11808 -17.3415,13.1337 -13.2617,-5.32651 -19.443,-15.10716 -13.3275,-29.34175 6.6725,-15.53194 16.995,-34.15667 25.8215,-48.57395 5.7732,-9.37856 11.9587,-18.45113 19.2148,-26.6739 z"
     fill="#3f2a2c"
     id="path50"
     style="stroke-width:0.447667" />
  <path
     fill-rule="evenodd"
     clip-rule="evenodd"
     d="m 1172.8583,168.48631 c 19.9562,-32.25169 58.8244,-85.046698 89.0548,-99.052888 15.0823,-6.98482 29.4671,-1.21972 34.3629,20.1596 2.7945,12.201718 -1.3775,29.931018 -4.8256,41.219108 -1.3862,5.6509 -2.8923,11.71293 -4.5186,18.17698 -1.6262,6.46404 -3.4042,12.94179 -5.3345,19.43325 -4.6765,22.68125 -9.2608,39.79383 -11.1955,63.72679 -2.7988,37.00263 -3.3296,70.35071 15.4903,101.92637 9.6162,16.14406 2.1715,18.06272 -10.1733,23.45322 -18.7761,8.19542 -57.4688,13.24791 -68.8749,-14.61832 -8.48,-26.38152 -4.4747,-87.21209 -0.6054,-115.35691 1.9556,-13.57221 4.5782,-27.03021 7.857,-40.31919 5.6679,-22.38432 -2.7199,-10.50693 -9.4275,-1.63543 -30.3577,41.19629 -39.6404,73.19674 -39.5133,125.87302 2.5582,7.58779 5.9062,14.865 9.9848,21.6945 9.6205,16.14415 2.1935,18.0628 -10.1734,23.45331 -18.7761,8.19533 -57.4689,13.24782 -68.8749,-14.61832 -8.4844,-26.38161 -4.4748,-87.21209 -0.6054,-115.35241 1.9464,-13.56306 4.5571,-27.0165 7.8218,-40.3009 5.6724,-22.38432 -2.7155,-10.50693 -9.4231,-1.63544 -23.5272,47.85677 -30.5375,78.85676 -39.2061,142.24548 -5.7425,41.96376 -3.4524,28.4007 -23.277,35.96571 -103.88705,39.66596 -16.96,-158.75053 18.4251,-197.88197 19.9562,-32.2517 71.0947,-82.488488 101.3384,-96.494678 15.0866,-6.9894 29.4714,-1.21973 34.3672,20.15958 2.7945,12.197168 -1.3774,29.931018 -4.8256,41.214548 -1.3806,5.65547 -2.8853,11.71295 -4.5141,18.17699 -1.6289,6.46404 -3.4087,12.94179 -5.339,19.43781 -0.5001,2.43487 -0.9989,4.80578 -1.496,7.11273 1.1376,-2.08312 2.3046,-4.13881 3.5009,-6.16254 z"
     fill="#3f2a2c"
     id="path52"
     style="stroke-width:0.447667" />
  <path
     fill-rule="evenodd"
     clip-rule="evenodd"
     d="m 353.25867,253.56391 c 1.26785,-3.83272 2.27683,-5.79701 3.36481,-9.96328 2.00485,-7.69289 7.9491,-21.42956 11.07257,-29.14073 4.31241,-10.50693 23.20257,-54.51724 31.80535,-57.8018 11.44993,-4.37179 42.74197,12.2657 36.09569,32.69025 -1.82932,5.62349 -6.14164,12.81388 -8.93611,18.24094 -7.63772,15.79693 -16.35889,34.52667 -19.50876,51.88592 -4.50096,32.56234 0.11406,46.59598 25.88297,15.85635 23.89123,-31.24213 38.14006,-68.126 61.54871,-99.76099 5.86534,-7.85735 15.40252,-19.62054 26.20321,-15.6142 11.5508,4.28499 21.27663,17.62879 16.41593,30.76245 -3.13224,8.4695 -9.54161,17.64707 -13.4679,26.8018 -9.57234,22.29753 -17.76711,42.28352 -20.77217,66.86976 -2.39967,20.47931 -1.9697,35.87886 8.94496,53.73146 6.47952,10.60291 1.00022,10.72161 -8.71249,13.43518 -16.10003,4.33983 -37.44688,5.53215 -51.9413,-4.34893 -9.15557,-7.67012 -0.87738,-11.67644 -6.77344,-43.73626 -2.72867,-14.82846 3.57531,-14.80102 -5.6504,-0.32893 -16.3852,25.69172 -35.82816,52.00017 -68.97583,39.51063 -37.46008,-18.76628 -24.22031,-62.06852 -16.5958,-89.08962 z"
     fill="#3f2a2c"
     id="path26"
     style="stroke-width:0.447667" />
  <path
     fill-rule="evenodd"
     clip-rule="evenodd"
     d="m 277.86471,355.30298 c -8.8309,-4.92911 -9.37042,-14.47217 -10.08989,-24.04718 -2.11016,-33.28409 1.92585,-61.566 11.67364,-93.19186 3.68938,-11.97333 -2.76817,-4.17079 -6.83925,0 -31.28327,32.32475 -36.4906,55.51313 -36.44667,100.13556 0,16.82478 -2.97,21.87268 -19.61406,15.98883 -32.30979,-11.48458 -17.15294,-34.83278 -7.46653,-58.16723 22.1409,-53.28386 44.6634,-88.12117 89.97171,-123.00417 13.74864,-10.3653 39.579,-26.8886 48.62919,-1.43899 4.2203,11.8774 -2.37328,25.77395 -6.04078,37.15797 -2.66729,8.27763 -5.66351,16.20808 -8.05883,24.54966 -8.20353,29.20927 -14.1786,57.3039 -6.31718,87.46334 2.87347,10.15969 6.43568,12.89153 11.34898,21.19197 5.61966,9.48825 -2.63214,10.66222 -10.0899,13.50825 -14.85857,5.82455 -36.15716,7.41428 -50.66043,-0.14615 z"
     fill="#3f2a2c"
     id="path28"
     style="stroke-width:0.447667" />
  <path
     fill-rule="evenodd"
     clip-rule="evenodd"
     d="m 204.84411,69.788692 8.49313,-1.037 c 3.80215,-0.0914 7.28102,-0.26952 10.43652,-0.53448 8.65981,-0.2741 15.74168,0.29694 21.24598,1.71309 11.99084,3.08492 16.86335,10.06518 14.61725,20.94075 -1.83939,9.191278 -5.57713,19.145438 -11.21303,29.862498 -6.12411,9.87058 -13.51304,15.6567 -22.1672,17.35928 -4.67952,0.94105 -10.8677,1.67516 -18.56549,2.20188 l -10.92344,0.40657 -10.55501,1.04156 c -19.17663,1.14525 -32.72787,2.48831 -40.65379,4.02918 -9.06642,1.96114 -16.33563,7.24658 -21.80746,15.85632 l -1.57055,2.28411 -1.6933,2.78662 c -1.07964,2.00181 -1.93072,4.12831 -2.53569,6.33614 -1.52358,4.97617 -0.0616,8.21687 4.38698,9.72119 3.15854,1.16946 7.4898,1.74643 12.99409,1.73136 4.43516,-0.15806 8.85461,-0.63454 13.22665,-1.4253 6.79099,-1.11464 16.73487,-3.20552 29.83114,-6.27217 l 7.55872,-1.28824 7.40072,-0.7766 c 5.82593,0.0672 10.44226,1.61258 13.8496,4.63675 4.05355,3.19457 5.64293,8.078 4.76859,14.65031 -0.31104,2.77155 -0.95637,5.49147 -1.92143,8.0949 -0.65193,2.72769 -1.62272,5.36219 -2.891,7.84365 l -1.81179,3.2937 -1.44771,3.91954 -4.47032,7.97612 c -3.54467,6.24614 -6.85105,10.76275 -9.91888,13.54937 -2.66417,2.53673 -6.82736,4.14932 -12.48956,4.83775 l -6.79541,0.39744 -6.20754,0.0183 -7.89649,0.65325 -8.2518,0.0229 -16.38086,1.68571 c -13.02343,1.30054 -23.69825,3.56319 -32.024622,6.78836 -5.00993,2.28733 -9.76402,10.00897 -14.26194,23.16552 -4.25538,13.58264 -3.74954,21.58618 1.51786,24.01057 5.82896,2.93278 14.326432,3.33158 25.492502,1.1969 4.81859,-0.65239 9.56922,-1.76566 14.1918,-3.3257 3.98817,-1.08539 7.9149,-2.40334 11.76131,-3.94692 6.14174,-2.71356 10.7888,-4.91681 13.9417,-6.61027 4.57345,-2.3133 8.99237,-4.94418 13.22665,-7.87558 9.44942,-6.51434 17.0946,-6.87201 22.93494,-1.07353 6.16231,5.88385 7.40385,16.58131 3.72446,32.09177 -2.24037,9.44116 -5.61967,17.16149 -10.13817,23.16093 -6.2966,7.68372 -16.07242,14.11451 -29.32668,19.29159 -4.93093,1.9493 -10.54929,3.90129 -16.85466,5.85649 -4.44835,1.36133 -9.94823,2.8095 -16.49927,4.34442 -11.11607,2.86932 -22.435702,4.80166 -33.849612,5.77883 l -7.89649,0.65326 -7.89649,0.65325 c -15.69997,1.31016 -31.49953,-0.11974 -46.74722,-4.23022 C 4.1724081,361.14129 4.0144781,358.82513 0.67601812,349.90797 -2.5089019,341.41567 6.4316781,312.7089 9.3928681,300.22846 10.433888,295.843 12.078988,290.36115 14.328168,283.78282 l 2.89976,-7.8619 2.2856,-7.46448 15.17881,-46.55024 c 5.61529,-17.88005 10.35011,-33.48191 14.2049,-46.80607 1.68459,-5.64952 3.32223,-13.99568 4.91338,-25.03846 l 2.39527,-12.26569 2.5181,-12.79104 c 1.63413,-7.14928 3.97628,-14.10258 6.98838,-20.7489 5.14717,-11.572688 13.30253,-18.425028 24.46599,-20.557008 2.1026,-0.17359 8.73741,-0.61214 19.903482,-1.31565 5.43893,-0.0128 10.8704,-0.4084 16.25803,-1.18317 7.64909,-0.44449 15.26657,-1.3595 22.8121,-2.74094 7.04237,-0.68843 16.34439,-2.2293 27.90527,-4.62305 11.48501,-2.01916 20.74718,-3.36815 27.78687,-4.04744 z"
     fill="#3f2a2c"
     id="path30"
     style="stroke-width:0.447667" />
  <path
     fill-rule="evenodd"
     clip-rule="evenodd"
     d="m 353.25867,253.56391 c 1.26785,-3.83272 2.27683,-5.79701 3.36481,-9.96328 2.00485,-7.69289 7.9491,-21.42956 11.07257,-29.14073 4.31241,-10.50693 23.20257,-54.51724 31.80535,-57.8018 11.44993,-4.37179 42.74197,12.2657 36.09569,32.69025 -1.82932,5.62349 -6.14164,12.81388 -8.93611,18.24094 -7.63772,15.79693 -16.35889,34.52667 -19.50876,51.88592 -4.50096,32.56234 0.11406,46.59598 25.88297,15.85635 23.89123,-31.24213 38.14006,-68.126 61.54871,-99.76099 5.86534,-7.85735 15.40252,-19.62054 26.20321,-15.6142 11.5508,4.28499 21.27663,17.62879 16.41593,30.76245 -3.13224,8.4695 -9.54161,17.64707 -13.4679,26.8018 -9.57234,22.29753 -17.76711,42.28352 -20.77217,66.86976 -2.39967,20.47931 -1.9697,35.87886 8.94496,53.73146 6.47952,10.60291 1.00022,10.72161 -8.71249,13.43518 -16.10003,4.33983 -37.44688,5.53215 -51.9413,-4.34893 -9.15557,-7.67012 -0.87738,-11.67644 -6.77344,-43.73626 -2.72867,-14.82846 3.57531,-14.80102 -5.6504,-0.32893 -16.3852,25.69172 -35.82816,52.00017 -68.97583,39.51063 -37.46008,-18.76628 -24.22031,-62.06852 -16.5958,-89.08962 z"
     fill="#3f2a2c"
     id="path54"
     style="stroke-width:0.447667" />
  <path
     fill-rule="evenodd"
     clip-rule="evenodd"
     d="m 277.86471,355.30298 c -8.8309,-4.92911 -9.37042,-14.47217 -10.08989,-24.04718 -2.11016,-33.28409 1.92585,-61.566 11.67364,-93.19186 3.68938,-11.97333 -2.76817,-4.17079 -6.83925,0 -31.28327,32.32475 -36.4906,55.51313 -36.44667,100.13556 0,16.82478 -2.97,21.87268 -19.61406,15.98883 -32.30979,-11.48458 -17.15294,-34.83278 -7.46653,-58.16723 22.1409,-53.28386 44.6634,-88.12117 89.97171,-123.00417 13.74864,-10.3653 39.579,-26.8886 48.62919,-1.43899 4.2203,11.8774 -2.37328,25.77395 -6.04078,37.15797 -2.66729,8.27763 -5.66351,16.20808 -8.05883,24.54966 -8.20353,29.20927 -14.1786,57.3039 -6.31718,87.46334 2.87347,10.15969 6.43568,12.89153 11.34898,21.19197 5.61966,9.48825 -2.63214,10.66222 -10.0899,13.50825 -14.85857,5.82455 -36.15716,7.41428 -50.66043,-0.14615 z"
     fill="#3f2a2c"
     id="path56"
     style="stroke-width:0.447667" />
  <path
     fill-rule="evenodd"
     clip-rule="evenodd"
     d="m 204.84411,69.788692 8.49313,-1.037 c 3.80215,-0.0914 7.28102,-0.26952 10.43652,-0.53448 8.65981,-0.2741 15.74168,0.29694 21.24598,1.71309 11.99084,3.08492 16.86335,10.06518 14.61725,20.94075 -1.83939,9.191278 -5.57713,19.145438 -11.21303,29.862498 -6.12411,9.87058 -13.51304,15.6567 -22.1672,17.35928 -4.67952,0.94105 -10.8677,1.67516 -18.56549,2.20188 l -10.92344,0.40657 -10.55501,1.04156 c -19.17663,1.14525 -32.72787,2.48831 -40.65379,4.02918 -9.06642,1.96114 -16.33563,7.24658 -21.80746,15.85632 l -1.57055,2.28411 -1.6933,2.78662 c -1.07964,2.00181 -1.93072,4.12831 -2.53569,6.33614 -1.52358,4.97617 -0.0616,8.21687 4.38698,9.72119 3.15854,1.16946 7.4898,1.74643 12.99409,1.73136 4.43516,-0.15806 8.85461,-0.63454 13.22665,-1.4253 6.79099,-1.11464 16.73487,-3.20552 29.83114,-6.27217 l 7.55872,-1.28824 7.40072,-0.7766 c 5.82593,0.0672 10.44226,1.61258 13.8496,4.63675 4.05355,3.19457 5.64293,8.078 4.76859,14.65031 -0.31104,2.77155 -0.95637,5.49147 -1.92143,8.0949 -0.65193,2.72769 -1.62272,5.36219 -2.891,7.84365 l -1.81179,3.2937 -1.44771,3.91954 -4.47032,7.97612 c -3.54467,6.24614 -6.85105,10.76275 -9.91888,13.54937 -2.66417,2.53673 -6.82736,4.14932 -12.48956,4.83775 l -6.79541,0.39744 -6.20754,0.0183 -7.89649,0.65325 -8.2518,0.0229 -16.38086,1.68571 c -13.02343,1.30054 -23.69825,3.56319 -32.024622,6.78836 -5.00993,2.28733 -9.76402,10.00897 -14.26194,23.16552 -4.25538,13.58264 -3.74954,21.58618 1.51786,24.01057 5.82896,2.93278 14.326432,3.33158 25.492502,1.1969 4.81859,-0.65239 9.56922,-1.76566 14.1918,-3.3257 3.98817,-1.08539 7.9149,-2.40334 11.76131,-3.94692 6.14174,-2.71356 10.7888,-4.91681 13.9417,-6.61027 4.57345,-2.3133 8.99237,-4.94418 13.22665,-7.87558 9.44942,-6.51434 17.0946,-6.87201 22.93494,-1.07353 6.16231,5.88385 7.40385,16.58131 3.72446,32.09177 -2.24037,9.44116 -5.61967,17.16149 -10.13817,23.16093 -6.2966,7.68372 -16.07242,14.11451 -29.32668,19.29159 -4.93093,1.9493 -10.54929,3.90129 -16.85466,5.85649 -4.44835,1.36133 -9.94823,2.8095 -16.49927,4.34442 -11.11607,2.86932 -22.435702,4.80166 -33.849612,5.77883 l -7.89649,0.65326 -7.89649,0.65325 c -15.69997,1.31016 -31.49953,-0.11974 -46.74722,-4.23022 C 4.1724081,361.14129 4.0144781,358.82513 0.67601812,349.90797 -2.5089019,341.41567 6.4316781,312.7089 9.3928681,300.22846 10.433888,295.843 12.078988,290.36115 14.328168,283.78282 l 2.89976,-7.8619 2.2856,-7.46448 15.17881,-46.55024 c 5.61529,-17.88005 10.35011,-33.48191 14.2049,-46.80607 1.68459,-5.64952 3.32223,-13.99568 4.91338,-25.03846 l 2.39527,-12.26569 2.5181,-12.79104 c 1.63413,-7.14928 3.97628,-14.10258 6.98838,-20.7489 5.14717,-11.572688 13.30253,-18.425028 24.46599,-20.557008 2.1026,-0.17359 8.73741,-0.61214 19.903482,-1.31565 5.43893,-0.0128 10.8704,-0.4084 16.25803,-1.18317 7.64909,-0.44449 15.26657,-1.3595 22.8121,-2.74094 7.04237,-0.68843 16.34439,-2.2293 27.90527,-4.62305 11.48501,-2.01916 20.74718,-3.36815 27.78687,-4.04744 z"
     fill="#3f2a2c"
     id="path58"
     style="stroke-width:0.447667" />
  <path
     fill-rule="evenodd"
     clip-rule="evenodd"
     d="m 627.6691,259.77801 c 7.33265,-43.93022 35.58477,-71.74987 86.81174,-81.87612 -38.9926,18.70911 -68.34971,45.56153 -86.81174,81.87612 z"
     fill="#3f2a2c"
     id="path305"
     style="stroke-width:0.440844" />
  <path
     fill-rule="evenodd"
     clip-rule="evenodd"
     d="m 754.25568,70.035142 c 6.89951,4.6e-4 13.54712,2.5661 18.63884,7.1935 5.09622,4.62693 8.26524,10.9814 8.89287,17.81525 0.62321,6.833748 -1.3392,13.653028 -5.51158,19.119818 -4.16804,5.46632 -10.241,9.18436 -17.02553,10.42479 1.76791,1.18714 3.02317,3.65822 3.02317,6.51189 0.0133,1.41583 -0.3094,2.8145 -0.93703,4.08479 91.39069,2.33043 164.76143,75.03453 164.76143,164.35033 0,6.7626 2.5016,13.30528 -5.989,13.34049 -111.49689,0.47486 -229.58401,0.39135 -332.21901,-5.29839 l 327.99361,-4.49808 c 0.8397,-85.94339 -75.17849,-158.66943 -166.45431,-157.3855 -91.27583,1.28383 -147.26743,70.72982 -161.831,150.27551 1.9226,-87.69333 74.56401,-158.5155 164.74378,-160.78878 -0.62763,-1.26845 -0.95029,-2.6663 -0.93702,-4.08037 0,-2.53707 0.97231,-4.76629 2.4486,-6.06782 -7.33264,-0.0535 -14.34262,-3.00096 -19.48741,-8.19557 -5.14478,-5.19451 -8.00892,-12.20993 -7.95585,-19.503248 0.0575,-7.29322 3.01875,-14.26643 8.23871,-19.38582 5.22439,-5.11939 12.27409,-7.96597 19.60673,-7.91279 z m 5.1094,7.51886 c 4.06642,0 8.03546,1.19903 11.41667,3.44549 3.37687,2.24591 6.01113,5.43904 7.56694,9.17423 1.55581,3.73574 1.96241,7.84596 1.17124,11.811208 -0.79551,3.96561 -2.75358,7.60807 -5.62657,10.46654 -2.87289,2.85846 -6.53705,4.805 -10.52377,5.59342 -3.98682,0.78842 -8.11497,0.38297 -11.87191,-1.16521 -3.75252,-1.54772 -6.96134,-4.16829 -9.21996,-7.53074 -2.25853,-3.3619 -3.46081,-7.3148 -3.46081,-11.357828 0,-2.68436 0.53043,-5.34226 1.56465,-7.82172 1.03432,-2.47993 2.5459,-4.73339 4.45533,-6.63117 1.905,-1.89769 4.17238,-3.40319 6.66521,-4.42987 2.49283,-1.02677 5.1669,-1.55482 7.86298,-1.55435 z"
     fill="#3f2a2c"
     id="path307"
     style="stroke-width:0.440844" />
  <path
     fill-rule="evenodd"
     clip-rule="evenodd"
     d="m 757.00935,335.04996 c 112.48701,0 198.4855,4.55089 203.7142,6.46351 -4.5967,1.52136 -91.22719,6.46803 -203.7142,6.46803 -112.4871,0 -198.72418,-4.23429 -203.71869,-6.46803 4.67628,-1.98303 91.22717,-6.46351 203.71869,-6.46351 z"
     fill="#3f2a2c"
     id="path309"
     style="stroke-width:0.440844" />
  <path
     fill-rule="evenodd"
     clip-rule="evenodd"
     d="m 897.97835,17.205462 v 12.28947 c 0,12.4611 11.8587,23.20729 11.8587,37.37436 v 3.44282 c 0,5.92275 -6.5018,22.47739 -9.388,24.57914 0.884,-3.75943 2.9658,-11.331 2.9658,-15.72797 v -8.86435 c 0,-13.09854 -11.3636,-26.46097 -11.3636,-37.85354 v -6.38886 c 0.013,-6.70978 5.8033,-22.5169297 8.8929,-26.0565296757811 C 900.50655,5.2192223 897.97835,12.355572 897.97835,17.205462 Z"
     fill="#3f2a2c"
     id="path311"
     style="stroke-width:0.440844" />
  <path
     fill-rule="evenodd"
     clip-rule="evenodd"
     d="m 882.27875,76.133752 0.389,7.43968 c 0,14.61999 11.8542,25.898178 11.8542,37.374348 v 6.88123 c 0,5.60623 -6.263,19.60178 -8.8707,22.61813 l 2.4486,-15.73682 v -8.35428 c 0,-14.30772 -11.3636,-25.06276 -11.3636,-39.819068 v -1.47739 c 0,-8.84666 4.9679,-24.50873 8.8398,-29.02007 z"
     fill="#3f2a2c"
     id="path313"
     style="stroke-width:0.440844" />
  <path
     fill-rule="evenodd"
     clip-rule="evenodd"
     d="m 920.28125,105.63753 c -1.1668,11.87176 12.7736,28.25939 12.7736,39.87621 v 5.40826 c 0,6.29207 -6.515,21.29015 -9.1227,24.6231 l 2.7006,-19.21485 V 150.922 c 0,-14.21104 -11.3637,-26.95786 -11.3637,-38.3461 v -6.38876 c 0,-5.58421 6.5018,-24.790208 8.641,-27.564708 z"
     fill="#3f2a2c"
     id="path315"
     style="stroke-width:0.440844" />
  <path
     fill-rule="evenodd"
     clip-rule="evenodd"
     d="m 627.6691,259.77801 c 7.33265,-43.93022 35.58477,-71.74987 86.81174,-81.87612 -38.9926,18.70911 -68.34971,45.56153 -86.81174,81.87612 z"
     fill="#3f2a2c"
     id="path333"
     style="stroke-width:0.440844" />
  <path
     fill-rule="evenodd"
     clip-rule="evenodd"
     d="m 754.25568,70.035142 c 6.89951,4.6e-4 13.54712,2.5661 18.63884,7.1935 5.09622,4.62693 8.26524,10.9814 8.89287,17.81525 0.62321,6.833748 -1.3392,13.653028 -5.51158,19.119818 -4.16804,5.46632 -10.241,9.18436 -17.02553,10.42479 1.76791,1.18714 3.02317,3.65822 3.02317,6.51189 0.0133,1.41583 -0.3094,2.8145 -0.93703,4.08479 91.39069,2.33043 164.76143,75.03453 164.76143,164.35033 0,6.7626 2.5016,13.30528 -5.989,13.34049 -111.49689,0.47486 -229.58401,0.39135 -332.21901,-5.29839 l 327.99361,-4.49808 c 0.8397,-85.94339 -75.17849,-158.66943 -166.45431,-157.3855 -91.27583,1.28383 -147.26743,70.72982 -161.831,150.27551 1.9226,-87.69333 74.56401,-158.5155 164.74378,-160.78878 -0.62763,-1.26845 -0.95029,-2.6663 -0.93702,-4.08037 0,-2.53707 0.97231,-4.76629 2.4486,-6.06782 -7.33264,-0.0535 -14.34262,-3.00096 -19.48741,-8.19557 -5.14478,-5.19451 -8.00892,-12.20993 -7.95585,-19.503248 0.0575,-7.29322 3.01875,-14.26643 8.23871,-19.38582 5.22439,-5.11939 12.27409,-7.96597 19.60673,-7.91279 z m 5.1094,7.51886 c 4.06642,0 8.03546,1.19903 11.41667,3.44549 3.37687,2.24591 6.01113,5.43904 7.56694,9.17423 1.55581,3.73574 1.96241,7.84596 1.17124,11.811208 -0.79551,3.96561 -2.75358,7.60807 -5.62657,10.46654 -2.87289,2.85846 -6.53705,4.805 -10.52377,5.59342 -3.98682,0.78842 -8.11497,0.38297 -11.87191,-1.16521 -3.75252,-1.54772 -6.96134,-4.16829 -9.21996,-7.53074 -2.25853,-3.3619 -3.46081,-7.3148 -3.46081,-11.357828 0,-2.68436 0.53043,-5.34226 1.56465,-7.82172 1.03432,-2.47993 2.5459,-4.73339 4.45533,-6.63117 1.905,-1.89769 4.17238,-3.40319 6.66521,-4.42987 2.49283,-1.02677 5.1669,-1.55482 7.86298,-1.55435 z"
     fill="#3f2a2c"
     id="path335"
     style="stroke-width:0.440844" />
  <path
     fill-rule="evenodd"
     clip-rule="evenodd"
     d="m 757.00935,335.04996 c 112.48701,0 198.4855,4.55089 203.7142,6.46351 -4.5967,1.52136 -91.22719,6.46803 -203.7142,6.46803 -112.4871,0 -198.72418,-4.23429 -203.71869,-6.46803 4.67628,-1.98303 91.22717,-6.46351 203.71869,-6.46351 z"
     fill="#3f2a2c"
     id="path337"
     style="stroke-width:0.440844" />
  <path
     fill-rule="evenodd"
     clip-rule="evenodd"
     d="m 897.97835,17.205462 v 12.28947 c 0,12.4611 11.8587,23.20729 11.8587,37.37436 v 3.44282 c 0,5.92275 -6.5018,22.47739 -9.388,24.57914 0.884,-3.75943 2.9658,-11.331 2.9658,-15.72797 v -8.86435 c 0,-13.09854 -11.3636,-26.46097 -11.3636,-37.85354 v -6.38886 c 0.013,-6.70978 5.8033,-22.5169297 8.8929,-26.0565296757811 C 900.50655,5.2192223 897.97835,12.355572 897.97835,17.205462 Z"
     fill="#3f2a2c"
     id="path339"
     style="stroke-width:0.440844" />
  <path
     fill-rule="evenodd"
     clip-rule="evenodd"
     d="m 882.27875,76.133752 0.389,7.43968 c 0,14.61999 11.8542,25.898178 11.8542,37.374348 v 6.88123 c 0,5.60623 -6.263,19.60178 -8.8707,22.61813 l 2.4486,-15.73682 v -8.35428 c 0,-14.30772 -11.3636,-25.06276 -11.3636,-39.819068 v -1.47739 c 0,-8.84666 4.9679,-24.50873 8.8398,-29.02007 z"
     fill="#3f2a2c"
     id="path341"
     style="stroke-width:0.440844" />
  <path
     fill-rule="evenodd"
     clip-rule="evenodd"
     d="m 920.28125,105.63753 c -1.1668,11.87176 12.7736,28.25939 12.7736,39.87621 v 5.40826 c 0,6.29207 -6.515,21.29015 -9.1227,24.6231 l 2.7006,-19.21485 V 150.922 c 0,-14.21104 -11.3637,-26.95786 -11.3637,-38.3461 v -6.38876 c 0,-5.58421 6.5018,-24.790208 8.641,-27.564708 z"
     fill="#3f2a2c"
     id="path343"
     style="stroke-width:0.440844" />
</svg>
