<?xml version="1.0" encoding="UTF-8" standalone="no"?>
<svg
   width="1826.5398"
   height="370.93567"
   viewBox="0 0 1826.5398 370.93567"
   fill="none"
   version="1.1"
   id="svg60"
   sodipodi:docname="logotip555555556.svg"
   inkscape:version="1.2.2 (b0a8486541, 2022-12-01)"
   inkscape:export-filename="logotip5555555556.svg"
   inkscape:export-xdpi="96"
   inkscape:export-ydpi="96"
   xmlns:inkscape="http://www.inkscape.org/namespaces/inkscape"
   xmlns:sodipodi="http://sodipodi.sourceforge.net/DTD/sodipodi-0.dtd"
   xmlns="http://www.w3.org/2000/svg"
   xmlns:svg="http://www.w3.org/2000/svg">
  <defs
     id="defs64" />
  <sodipodi:namedview
     id="namedview62"
     pagecolor="#ffffff"
     bordercolor="#000000"
     borderopacity="0.25"
     inkscape:showpageshadow="2"
     inkscape:pageopacity="0.0"
     inkscape:pagecheckerboard="0"
     inkscape:deskcolor="#d1d1d1"
     showgrid="false"
     inkscape:zoom="0.47839054"
     inkscape:cx="512.13387"
     inkscape:cy="217.3956"
     inkscape:window-width="1366"
     inkscape:window-height="705"
     inkscape:window-x="-8"
     inkscape:window-y="-8"
     inkscape:window-maximized="1"
     inkscape:current-layer="svg60" />
  <path
     fill-rule="evenodd"
     clip-rule="evenodd"
     d="m 1809.9471,247.52127 c -1.7548,3.65454 -3.3955,7.41419 -4.9221,11.27436 -1.4653,3.66371 -2.6717,7.42795 -3.6105,11.27435 -6.5804,21.33821 -11.4061,49.44193 0.9564,69.51024 6.1417,9.99987 3.9,9.91762 -6.326,12.84582 -13.3188,3.81904 -34.4199,4.63681 -45.7778,-4.68703 -7.019,-6.78837 -5.5801,-18.88499 -5.1722,-27.9941 0.272,-6.15338 1.0134,-12.15144 1.8514,-18.24092 -9.761,15.62787 -26.5586,43.39816 -45.8874,45.46756 -14.262,1.5441 -30.033,-4.56815 -36.0387,-18.86223 -5.6372,-13.41232 -3.3121,-31.13703 -0.5922,-45.03811 5.5669,-26.90231 23.6895,-69.21325 38.2409,-92.24626 0.2939,-0.47966 0.6185,-0.93648 0.9695,-1.37047 2.189,-3.65458 5.4705,-5.02505 9.8443,-4.1114 4.3738,0.91364 7.2165,1.82728 8.5282,2.74093 3.0621,0.91365 6.133,2.74094 9.2126,5.48187 1.7548,1.3659 3.9482,4.09771 6.5804,8.19997 2.6321,4.10227 2.6321,8.88521 0,14.34881 -10.6734,19.06322 -29.3311,56.58204 -24.3519,78.87508 2.9392,10.35156 8.6642,7.19496 14.6831,1.40695 1.8468,-1.82272 3.6016,-3.74138 5.2643,-5.75137 l 1.9214,-2.37088 c 9.8707,-12.58546 17.7365,-25.83337 25.769,-39.70249 7.3042,-12.79106 31.9193,-63.61718 48.2869,-60.30064 7.5193,1.52579 17.0258,11.49823 17.1617,19.82154 0.1361,8.32332 -9.695,22.20159 -13.3142,30.88123 -1.1889,2.81859 -2.2549,5.66921 -3.2771,8.54719 z m -149.8798,-62.54366 c 15.6746,-1.85013 21.9917,11.74949 17.9119,26.12114 -3.9483,13.90568 -12.494,29.62495 -17.7584,43.94182 -9.3748,25.49526 -16.6133,54.90092 -4.5799,80.79368 5.703,10.68049 7.9535,13.32098 -6.5321,17.15371 -14.0163,3.70942 -29.6558,3.2663 -42.4832,-4.19819 -9.4143,-5.788 -7.1156,-20.46572 -6.5804,-30.44732 1.395,-24.88314 5.8039,-43.62198 14.8761,-66.63217 3.22,-8.17254 2.856,-9.85822 -4.6194,-3.43073 -24.1677,20.7763 -34.5604,41.37449 -37.3987,73.62159 -0.2106,2.38464 -0.3772,4.7601 -0.5396,7.14924 -0.2764,4.32616 -0.4387,10.08213 -2.812,13.78238 -5.3652,7.47367 -22.4041,-2.22013 -26.8876,-8.14061 -8.0017,-10.56629 -1.0923,-21.42496 3.9747,-31.35626 2.5268,-4.95196 5.1414,-9.85831 7.7253,-14.77365 18.3506,-34.85564 30.9191,-52.38849 61.0662,-77.48177 11.8229,-9.8628 29.5241,-23.14721 44.6371,-26.10286 z m -156.3417,29.12247 c -6.8436,-5.1484 -17.5127,11.37488 -20.7019,16.14411 -6.0935,9.10448 -13.5119,23.97411 -15.5781,34.60888 -1.8557,9.54306 6.1768,2.38464 9.6513,-0.42936 12.5511,-10.19173 23.4744,-23.15181 28.1729,-39.25482 1.2195,-4.50884 1.1099,-7.32288 -1.5442,-11.06881 z m -61.4171,129.73772 c -28.3835,-16.30407 -21.7023,-54.23407 -10.9148,-79.94406 13.1608,-29.75285 34.8367,-58.01648 63.4702,-72.71704 l 1.3951,-0.69437 c 6.9972,-3.41704 13.9987,-5.24432 20.9959,-5.48187 6.984,-0.23298 13.8627,1.79531 19.6886,5.80621 3.8693,2.62674 6.6769,6.63765 7.8965,11.2744 1.3117,4.7875 1.531,10.02725 0.6537,15.71927 -0.9915,6.07117 -2.8735,11.94592 -5.5759,17.42322 -2.891,6.00265 -6.2952,11.72212 -10.1733,17.08517 -3.062,4.56824 -6.1241,8.21369 -9.1862,10.93175 l -4.5932,4.78296 c -1.5135,1.49839 -3.3033,2.66327 -5.2643,3.41705 -15.4596,11.25609 -19.2192,11.19669 -36.9204,15.28985 -8.1116,1.87294 -8.774,4.00632 -7.1551,12.22 4.15,18.72976 25.6021,14.70058 38.3637,9.48367 l 3.4174,-1.45726 c 21.9655,-10.23745 35.4289,-19.39211 52.4942,-37.09863 2.2768,-2.36629 11.0419,-10.9637 12.6694,-3.27081 2.6323,12.44382 -32.2659,47.00707 -41.5882,54.97408 -11.7745,10.05009 -24.2554,18.33226 -38.5041,24.0471 -17.574,6.66967 -34.1874,7.01686 -51.1517,-1.79069 z"
     fill="#3f2a2c"
     id="path20"
     style="stroke-width:0.447667" />
  <path
     fill-rule="evenodd"
     clip-rule="evenodd"
     d="m 1345.7037,238.70455 c 16.1,-17.59225 46.8875,-46.07516 69.3136,-52.63969 11.178,-3.27086 21.1275,0.77202 23.4087,13.33466 1.316,7.16755 -2.6936,17.1811 -5.7995,23.51267 -1.3117,3.18862 -2.7331,6.60565 -4.2642,10.24653 -1.531,3.64088 -3.1717,7.28633 -4.9221,10.93634 -4.637,12.83672 -8.888,22.47112 -11.6385,36.16666 -4.1062,21.18746 -6.3918,40.36944 5.2643,59.51037 5.9486,9.78055 0.522,10.50689 -8.6072,13.00573 -13.8846,3.78701 -41.8338,4.77837 -48.3879,-11.8774 -4.5536,-15.62336 1.7811,-50.47892 6.1416,-66.50429 2.1865,-7.77514 4.8235,-15.39955 7.8966,-22.84118 5.3301,-12.62655 -1.3424,-6.19909 -6.6419,-1.41154 -26.4356,24.43541 -34.0338,43.74076 -36.1308,80.01704 -0.8028,13.86004 -2.4479,19.11808 -17.3415,13.1337 -13.2617,-5.32651 -19.443,-15.10716 -13.3275,-29.34175 6.6725,-15.53194 16.995,-34.15667 25.8215,-48.57395 5.7732,-9.37856 11.9587,-18.45113 19.2148,-26.6739 z"
     fill="#3f2a2c"
     id="path22"
     style="stroke-width:0.447667" />
  <path
     fill-rule="evenodd"
     clip-rule="evenodd"
     d="m 1172.8583,168.48631 c 19.9562,-32.25169 58.8244,-85.046698 89.0548,-99.052888 15.0823,-6.98482 29.4671,-1.21972 34.3629,20.1596 2.7945,12.201718 -1.3775,29.931018 -4.8256,41.219108 -1.3862,5.6509 -2.8923,11.71293 -4.5186,18.17698 -1.6262,6.46404 -3.4042,12.94179 -5.3345,19.43325 -4.6765,22.68125 -9.2608,39.79383 -11.1955,63.72679 -2.7988,37.00263 -3.3296,70.35071 15.4903,101.92637 9.6162,16.14406 2.1715,18.06272 -10.1733,23.45322 -18.7761,8.19542 -57.4688,13.24791 -68.8749,-14.61832 -8.48,-26.38152 -4.4747,-87.21209 -0.6054,-115.35691 1.9556,-13.57221 4.5782,-27.03021 7.857,-40.31919 5.6679,-22.38432 -2.7199,-10.50693 -9.4275,-1.63543 -30.3577,41.19629 -39.6404,73.19674 -39.5133,125.87302 2.5582,7.58779 5.9062,14.865 9.9848,21.6945 9.6205,16.14415 2.1935,18.0628 -10.1734,23.45331 -18.7761,8.19533 -57.4689,13.24782 -68.8749,-14.61832 -8.4844,-26.38161 -4.4748,-87.21209 -0.6054,-115.35241 1.9464,-13.56306 4.5571,-27.0165 7.8218,-40.3009 5.6724,-22.38432 -2.7155,-10.50693 -9.4231,-1.63544 -23.5272,47.85677 -30.5375,78.85676 -39.2061,142.24548 -5.7425,41.96376 -3.4524,28.4007 -23.277,35.96571 -103.88705,39.66596 -16.96,-158.75053 18.4251,-197.88197 19.9562,-32.2517 71.0947,-82.488488 101.3384,-96.494678 15.0866,-6.9894 29.4714,-1.21973 34.3672,20.15958 2.7945,12.197168 -1.3774,29.931018 -4.8256,41.214548 -1.3806,5.65547 -2.8853,11.71295 -4.5141,18.17699 -1.6289,6.46404 -3.4087,12.94179 -5.339,19.43781 -0.5001,2.43487 -0.9989,4.80578 -1.496,7.11273 1.1376,-2.08312 2.3046,-4.13881 3.5009,-6.16254 z"
     fill="#3f2a2c"
     id="path24"
     style="stroke-width:0.447667" />
  <path
     fill-rule="evenodd"
     clip-rule="evenodd"
     d="m 1809.9471,247.52127 c -1.7548,3.65454 -3.3955,7.41419 -4.9221,11.27436 -1.4653,3.66371 -2.6717,7.42795 -3.6105,11.27435 -6.5804,21.33821 -11.4061,49.44193 0.9564,69.51024 6.1417,9.99987 3.9,9.91762 -6.326,12.84582 -13.3188,3.81904 -34.4199,4.63681 -45.7778,-4.68703 -7.019,-6.78837 -5.5801,-18.88499 -5.1722,-27.9941 0.272,-6.15338 1.0134,-12.15144 1.8514,-18.24092 -9.761,15.62787 -26.5586,43.39816 -45.8874,45.46756 -14.262,1.5441 -30.033,-4.56815 -36.0387,-18.86223 -5.6372,-13.41232 -3.3121,-31.13703 -0.5922,-45.03811 5.5669,-26.90231 23.6895,-69.21325 38.2409,-92.24626 0.2939,-0.47966 0.6185,-0.93648 0.9695,-1.37047 2.189,-3.65458 5.4705,-5.02505 9.8443,-4.1114 4.3738,0.91364 7.2165,1.82728 8.5282,2.74093 3.0621,0.91365 6.133,2.74094 9.2126,5.48187 1.7548,1.3659 3.9482,4.09771 6.5804,8.19997 2.6321,4.10227 2.6321,8.88521 0,14.34881 -10.6734,19.06322 -29.3311,56.58204 -24.3519,78.87508 2.9392,10.35156 8.6642,7.19496 14.6831,1.40695 1.8468,-1.82272 3.6016,-3.74138 5.2643,-5.75137 l 1.9214,-2.37088 c 9.8707,-12.58546 17.7365,-25.83337 25.769,-39.70249 7.3042,-12.79106 31.9193,-63.61718 48.2869,-60.30064 7.5193,1.52579 17.0258,11.49823 17.1617,19.82154 0.1361,8.32332 -9.695,22.20159 -13.3142,30.88123 -1.1889,2.81859 -2.2549,5.66921 -3.2771,8.54719 z m -149.8798,-62.54366 c 15.6746,-1.85013 21.9917,11.74949 17.9119,26.12114 -3.9483,13.90568 -12.494,29.62495 -17.7584,43.94182 -9.3748,25.49526 -16.6133,54.90092 -4.5799,80.79368 5.703,10.68049 7.9535,13.32098 -6.5321,17.15371 -14.0163,3.70942 -29.6558,3.2663 -42.4832,-4.19819 -9.4143,-5.788 -7.1156,-20.46572 -6.5804,-30.44732 1.395,-24.88314 5.8039,-43.62198 14.8761,-66.63217 3.22,-8.17254 2.856,-9.85822 -4.6194,-3.43073 -24.1677,20.7763 -34.5604,41.37449 -37.3987,73.62159 -0.2106,2.38464 -0.3772,4.7601 -0.5396,7.14924 -0.2764,4.32616 -0.4387,10.08213 -2.812,13.78238 -5.3652,7.47367 -22.4041,-2.22013 -26.8876,-8.14061 -8.0017,-10.56629 -1.0923,-21.42496 3.9747,-31.35626 2.5268,-4.95196 5.1414,-9.85831 7.7253,-14.77365 18.3506,-34.85564 30.9191,-52.38849 61.0662,-77.48177 11.8229,-9.8628 29.5241,-23.14721 44.6371,-26.10286 z m -156.3417,29.12247 c -6.8436,-5.1484 -17.5127,11.37488 -20.7019,16.14411 -6.0935,9.10448 -13.5119,23.97411 -15.5781,34.60888 -1.8557,9.54306 6.1768,2.38464 9.6513,-0.42936 12.5511,-10.19173 23.4744,-23.15181 28.1729,-39.25482 1.2195,-4.50884 1.1099,-7.32288 -1.5442,-11.06881 z m -61.4171,129.73772 c -28.3835,-16.30407 -21.7023,-54.23407 -10.9148,-79.94406 13.1608,-29.75285 34.8367,-58.01648 63.4702,-72.71704 l 1.3951,-0.69437 c 6.9972,-3.41704 13.9987,-5.24432 20.9959,-5.48187 6.984,-0.23298 13.8627,1.79531 19.6886,5.80621 3.8693,2.62674 6.6769,6.63765 7.8965,11.2744 1.3117,4.7875 1.531,10.02725 0.6537,15.71927 -0.9915,6.07117 -2.8735,11.94592 -5.5759,17.42322 -2.891,6.00265 -6.2952,11.72212 -10.1733,17.08517 -3.062,4.56824 -6.1241,8.21369 -9.1862,10.93175 l -4.5932,4.78296 c -1.5135,1.49839 -3.3033,2.66327 -5.2643,3.41705 -15.4596,11.25609 -19.2192,11.19669 -36.9204,15.28985 -8.1116,1.87294 -8.774,4.00632 -7.1551,12.22 4.15,18.72976 25.6021,14.70058 38.3637,9.48367 l 3.4174,-1.45726 c 21.9655,-10.23745 35.4289,-19.39211 52.4942,-37.09863 2.2768,-2.36629 11.0419,-10.9637 12.6694,-3.27081 2.6323,12.44382 -32.2659,47.00707 -41.5882,54.97408 -11.7745,10.05009 -24.2554,18.33226 -38.5041,24.0471 -17.574,6.66967 -34.1874,7.01686 -51.1517,-1.79069 z"
     fill="#3f2a2c"
     id="path48"
     style="stroke-width:0.447667" />
  <path
     fill-rule="evenodd"
     clip-rule="evenodd"
     d="m 1345.7037,238.70455 c 16.1,-17.59225 46.8875,-46.07516 69.3136,-52.63969 11.178,-3.27086 21.1275,0.77202 23.4087,13.33466 1.316,7.16755 -2.6936,17.1811 -5.7995,23.51267 -1.3117,3.18862 -2.7331,6.60565 -4.2642,10.24653 -1.531,3.64088 -3.1717,7.28633 -4.9221,10.93634 -4.637,12.83672 -8.888,22.47112 -11.6385,36.16666 -4.1062,21.18746 -6.3918,40.36944 5.2643,59.51037 5.9486,9.78055 0.522,10.50689 -8.6072,13.00573 -13.8846,3.78701 -41.8338,4.77837 -48.3879,-11.8774 -4.5536,-15.62336 1.7811,-50.47892 6.1416,-66.50429 2.1865,-7.77514 4.8235,-15.39955 7.8966,-22.84118 5.3301,-12.62655 -1.3424,-6.19909 -6.6419,-1.41154 -26.4356,24.43541 -34.0338,43.74076 -36.1308,80.01704 -0.8028,13.86004 -2.4479,19.11808 -17.3415,13.1337 -13.2617,-5.32651 -19.443,-15.10716 -13.3275,-29.34175 6.6725,-15.53194 16.995,-34.15667 25.8215,-48.57395 5.7732,-9.37856 11.9587,-18.45113 19.2148,-26.6739 z"
     fill="#3f2a2c"
     id="path50"
     style="stroke-width:0.447667" />
  <path
     fill-rule="evenodd"
     clip-rule="evenodd"
     d="m 1172.8583,168.48631 c 19.9562,-32.25169 58.8244,-85.046698 89.0548,-99.052888 15.0823,-6.98482 29.4671,-1.21972 34.3629,20.1596 2.7945,12.201718 -1.3775,29.931018 -4.8256,41.219108 -1.3862,5.6509 -2.8923,11.71293 -4.5186,18.17698 -1.6262,6.46404 -3.4042,12.94179 -5.3345,19.43325 -4.6765,22.68125 -9.2608,39.79383 -11.1955,63.72679 -2.7988,37.00263 -3.3296,70.35071 15.4903,101.92637 9.6162,16.14406 2.1715,18.06272 -10.1733,23.45322 -18.7761,8.19542 -57.4688,13.24791 -68.8749,-14.61832 -8.48,-26.38152 -4.4747,-87.21209 -0.6054,-115.35691 1.9556,-13.57221 4.5782,-27.03021 7.857,-40.31919 5.6679,-22.38432 -2.7199,-10.50693 -9.4275,-1.63543 -30.3577,41.19629 -39.6404,73.19674 -39.5133,125.87302 2.5582,7.58779 5.9062,14.865 9.9848,21.6945 9.6205,16.14415 2.1935,18.0628 -10.1734,23.45331 -18.7761,8.19533 -57.4689,13.24782 -68.8749,-14.61832 -8.4844,-26.38161 -4.4748,-87.21209 -0.6054,-115.35241 1.9464,-13.56306 4.5571,-27.0165 7.8218,-40.3009 5.6724,-22.38432 -2.7155,-10.50693 -9.4231,-1.63544 -23.5272,47.85677 -30.5375,78.85676 -39.2061,142.24548 -5.7425,41.96376 -3.4524,28.4007 -23.277,35.96571 -103.88705,39.66596 -16.96,-158.75053 18.4251,-197.88197 19.9562,-32.2517 71.0947,-82.488488 101.3384,-96.494678 15.0866,-6.9894 29.4714,-1.21973 34.3672,20.15958 2.7945,12.197168 -1.3774,29.931018 -4.8256,41.214548 -1.3806,5.65547 -2.8853,11.71295 -4.5141,18.17699 -1.6289,6.46404 -3.4087,12.94179 -5.339,19.43781 -0.5001,2.43487 -0.9989,4.80578 -1.496,7.11273 1.1376,-2.08312 2.3046,-4.13881 3.5009,-6.16254 z"
     fill="#3f2a2c"
     id="path52"
     style="stroke-width:0.447667" />
  <path
     fill-rule="evenodd"
     clip-rule="evenodd"
     d="m 353.25867,253.56391 c 1.26785,-3.83272 2.27683,-5.79701 3.36481,-9.96328 2.00485,-7.69289 7.9491,-21.42956 11.07257,-29.14073 4.31241,-10.50693 23.20257,-54.51724 31.80535,-57.8018 11.44993,-4.37179 42.74197,12.2657 36.09569,32.69025 -1.82932,5.62349 -6.14164,12.81388 -8.93611,18.24094 -7.63772,15.79693 -16.35889,34.52667 -19.50876,51.88592 -4.50096,32.56234 0.11406,46.59598 25.88297,15.85635 23.89123,-31.24213 38.14006,-68.126 61.54871,-99.76099 5.86534,-7.85735 15.40252,-19.62054 26.20321,-15.6142 11.5508,4.28499 21.27663,17.62879 16.41593,30.76245 -3.13224,8.4695 -9.54161,17.64707 -13.4679,26.8018 -9.57234,22.29753 -17.76711,42.28352 -20.77217,66.86976 -2.39967,20.47931 -1.9697,35.87886 8.94496,53.73146 6.47952,10.60291 1.00022,10.72161 -8.71249,13.43518 -16.10003,4.33983 -37.44688,5.53215 -51.9413,-4.34893 -9.15557,-7.67012 -0.87738,-11.67644 -6.77344,-43.73626 -2.72867,-14.82846 3.57531,-14.80102 -5.6504,-0.32893 -16.3852,25.69172 -35.82816,52.00017 -68.97583,39.51063 -37.46008,-18.76628 -24.22031,-62.06852 -16.5958,-89.08962 z"
     fill="#3f2a2c"
     id="path26"
     style="stroke-width:0.447667" />
  <path
     fill-rule="evenodd"
     clip-rule="evenodd"
     d="m 277.86471,355.30298 c -8.8309,-4.92911 -9.37042,-14.47217 -10.08989,-24.04718 -2.11016,-33.28409 1.92585,-61.566 11.67364,-93.19186 3.68938,-11.97333 -2.76817,-4.17079 -6.83925,0 -31.28327,32.32475 -36.4906,55.51313 -36.44667,100.13556 0,16.82478 -2.97,21.87268 -19.61406,15.98883 -32.30979,-11.48458 -17.15294,-34.83278 -7.46653,-58.16723 22.1409,-53.28386 44.6634,-88.12117 89.97171,-123.00417 13.74864,-10.3653 39.579,-26.8886 48.62919,-1.43899 4.2203,11.8774 -2.37328,25.77395 -6.04078,37.15797 -2.66729,8.27763 -5.66351,16.20808 -8.05883,24.54966 -8.20353,29.20927 -14.1786,57.3039 -6.31718,87.46334 2.87347,10.15969 6.43568,12.89153 11.34898,21.19197 5.61966,9.48825 -2.63214,10.66222 -10.0899,13.50825 -14.85857,5.82455 -36.15716,7.41428 -50.66043,-0.14615 z"
     fill="#3f2a2c"
     id="path28"
     style="stroke-width:0.447667" />
  <path
     fill-rule="evenodd"
     clip-rule="evenodd"
     d="m 204.84411,69.788692 8.49313,-1.037 c 3.80215,-0.0914 7.28102,-0.26952 10.43652,-0.53448 8.65981,-0.2741 15.74168,0.29694 21.24598,1.71309 11.99084,3.08492 16.86335,10.06518 14.61725,20.94075 -1.83939,9.191278 -5.57713,19.145438 -11.21303,29.862498 -6.12411,9.87058 -13.51304,15.6567 -22.1672,17.35928 -4.67952,0.94105 -10.8677,1.67516 -18.56549,2.20188 l -10.92344,0.40657 -10.55501,1.04156 c -19.17663,1.14525 -32.72787,2.48831 -40.65379,4.02918 -9.06642,1.96114 -16.33563,7.24658 -21.80746,15.85632 l -1.57055,2.28411 -1.6933,2.78662 c -1.07964,2.00181 -1.93072,4.12831 -2.53569,6.33614 -1.52358,4.97617 -0.0616,8.21687 4.38698,9.72119 3.15854,1.16946 7.4898,1.74643 12.99409,1.73136 4.43516,-0.15806 8.85461,-0.63454 13.22665,-1.4253 6.79099,-1.11464 16.73487,-3.20552 29.83114,-6.27217 l 7.55872,-1.28824 7.40072,-0.7766 c 5.82593,0.0672 10.44226,1.61258 13.8496,4.63675 4.05355,3.19457 5.64293,8.078 4.76859,14.65031 -0.31104,2.77155 -0.95637,5.49147 -1.92143,8.0949 -0.65193,2.72769 -1.62272,5.36219 -2.891,7.84365 l -1.81179,3.2937 -1.44771,3.91954 -4.47032,7.97612 c -3.54467,6.24614 -6.85105,10.76275 -9.91888,13.54937 -2.66417,2.53673 -6.82736,4.14932 -12.48956,4.83775 l -6.79541,0.39744 -6.20754,0.0183 -7.89649,0.65325 -8.2518,0.0229 -16.38086,1.68571 c -13.02343,1.30054 -23.69825,3.56319 -32.024622,6.78836 -5.00993,2.28733 -9.76402,10.00897 -14.26194,23.16552 -4.25538,13.58264 -3.74954,21.58618 1.51786,24.01057 5.82896,2.93278 14.326432,3.33158 25.492502,1.1969 4.81859,-0.65239 9.56922,-1.76566 14.1918,-3.3257 3.98817,-1.08539 7.9149,-2.40334 11.76131,-3.94692 6.14174,-2.71356 10.7888,-4.91681 13.9417,-6.61027 4.57345,-2.3133 8.99237,-4.94418 13.22665,-7.87558 9.44942,-6.51434 17.0946,-6.87201 22.93494,-1.07353 6.16231,5.88385 7.40385,16.58131 3.72446,32.09177 -2.24037,9.44116 -5.61967,17.16149 -10.13817,23.16093 -6.2966,7.68372 -16.07242,14.11451 -29.32668,19.29159 -4.93093,1.9493 -10.54929,3.90129 -16.85466,5.85649 -4.44835,1.36133 -9.94823,2.8095 -16.49927,4.34442 -11.11607,2.86932 -22.435702,4.80166 -33.849612,5.77883 l -7.89649,0.65326 -7.89649,0.65325 c -15.69997,1.31016 -31.49953,-0.11974 -46.74722,-4.23022 C 4.1724081,361.14129 4.0144781,358.82513 0.67601812,349.90797 -2.5089019,341.41567 6.4316781,312.7089 9.3928681,300.22846 10.433888,295.843 12.078988,290.36115 14.328168,283.78282 l 2.89976,-7.8619 2.2856,-7.46448 15.17881,-46.55024 c 5.61529,-17.88005 10.35011,-33.48191 14.2049,-46.80607 1.68459,-5.64952 3.32223,-13.99568 4.91338,-25.03846 l 2.39527,-12.26569 2.5181,-12.79104 c 1.63413,-7.14928 3.97628,-14.10258 6.98838,-20.7489 5.14717,-11.572688 13.30253,-18.425028 24.46599,-20.557008 2.1026,-0.17359 8.73741,-0.61214 19.903482,-1.31565 5.43893,-0.0128 10.8704,-0.4084 16.25803,-1.18317 7.64909,-0.44449 15.26657,-1.3595 22.8121,-2.74094 7.04237,-0.68843 16.34439,-2.2293 27.90527,-4.62305 11.48501,-2.01916 20.74718,-3.36815 27.78687,-4.04744 z"
     fill="#3f2a2c"
     id="path30"
     style="stroke-width:0.447667" />
  <path
     fill-rule="evenodd"
     clip-rule="evenodd"
     d="m 353.25867,253.56391 c 1.26785,-3.83272 2.27683,-5.79701 3.36481,-9.96328 2.00485,-7.69289 7.9491,-21.42956 11.07257,-29.14073 4.31241,-10.50693 23.20257,-54.51724 31.80535,-57.8018 11.44993,-4.37179 42.74197,12.2657 36.09569,32.69025 -1.82932,5.62349 -6.14164,12.81388 -8.93611,18.24094 -7.63772,15.79693 -16.35889,34.52667 -19.50876,51.88592 -4.50096,32.56234 0.11406,46.59598 25.88297,15.85635 23.89123,-31.24213 38.14006,-68.126 61.54871,-99.76099 5.86534,-7.85735 15.40252,-19.62054 26.20321,-15.6142 11.5508,4.28499 21.27663,17.62879 16.41593,30.76245 -3.13224,8.4695 -9.54161,17.64707 -13.4679,26.8018 -9.57234,22.29753 -17.76711,42.28352 -20.77217,66.86976 -2.39967,20.47931 -1.9697,35.87886 8.94496,53.73146 6.47952,10.60291 1.00022,10.72161 -8.71249,13.43518 -16.10003,4.33983 -37.44688,5.53215 -51.9413,-4.34893 -9.15557,-7.67012 -0.87738,-11.67644 -6.77344,-43.73626 -2.72867,-14.82846 3.57531,-14.80102 -5.6504,-0.32893 -16.3852,25.69172 -35.82816,52.00017 -68.97583,39.51063 -37.46008,-18.76628 -24.22031,-62.06852 -16.5958,-89.08962 z"
     fill="#3f2a2c"
     id="path54"
     style="stroke-width:0.447667" />
  <path
     fill-rule="evenodd"
     clip-rule="evenodd"
     d="m 277.86471,355.30298 c -8.8309,-4.92911 -9.37042,-14.47217 -10.08989,-24.04718 -2.11016,-33.28409 1.92585,-61.566 11.67364,-93.19186 3.68938,-11.97333 -2.76817,-4.17079 -6.83925,0 -31.28327,32.32475 -36.4906,55.51313 -36.44667,100.13556 0,16.82478 -2.97,21.87268 -19.61406,15.98883 -32.30979,-11.48458 -17.15294,-34.83278 -7.46653,-58.16723 22.1409,-53.28386 44.6634,-88.12117 89.97171,-123.00417 13.74864,-10.3653 39.579,-26.8886 48.62919,-1.43899 4.2203,11.8774 -2.37328,25.77395 -6.04078,37.15797 -2.66729,8.27763 -5.66351,16.20808 -8.05883,24.54966 -8.20353,29.20927 -14.1786,57.3039 -6.31718,87.46334 2.87347,10.15969 6.43568,12.89153 11.34898,21.19197 5.61966,9.48825 -2.63214,10.66222 -10.0899,13.50825 -14.85857,5.82455 -36.15716,7.41428 -50.66043,-0.14615 z"
     fill="#3f2a2c"
     id="path56"
     style="stroke-width:0.447667" />
  <path
     fill-rule="evenodd"
     clip-rule="evenodd"
     d="m 204.84411,69.788692 8.49313,-1.037 c 3.80215,-0.0914 7.28102,-0.26952 10.43652,-0.53448 8.65981,-0.2741 15.74168,0.29694 21.24598,1.71309 11.99084,3.08492 16.86335,10.06518 14.61725,20.94075 -1.83939,9.191278 -5.57713,19.145438 -11.21303,29.862498 -6.12411,9.87058 -13.51304,15.6567 -22.1672,17.35928 -4.67952,0.94105 -10.8677,1.67516 -18.56549,2.20188 l -10.92344,0.40657 -10.55501,1.04156 c -19.17663,1.14525 -32.72787,2.48831 -40.65379,4.02918 -9.06642,1.96114 -16.33563,7.24658 -21.80746,15.85632 l -1.57055,2.28411 -1.6933,2.78662 c -1.07964,2.00181 -1.93072,4.12831 -2.53569,6.33614 -1.52358,4.97617 -0.0616,8.21687 4.38698,9.72119 3.15854,1.16946 7.4898,1.74643 12.99409,1.73136 4.43516,-0.15806 8.85461,-0.63454 13.22665,-1.4253 6.79099,-1.11464 16.73487,-3.20552 29.83114,-6.27217 l 7.55872,-1.28824 7.40072,-0.7766 c 5.82593,0.0672 10.44226,1.61258 13.8496,4.63675 4.05355,3.19457 5.64293,8.078 4.76859,14.65031 -0.31104,2.77155 -0.95637,5.49147 -1.92143,8.0949 -0.65193,2.72769 -1.62272,5.36219 -2.891,7.84365 l -1.81179,3.2937 -1.44771,3.91954 -4.47032,7.97612 c -3.54467,6.24614 -6.85105,10.76275 -9.91888,13.54937 -2.66417,2.53673 -6.82736,4.14932 -12.48956,4.83775 l -6.79541,0.39744 -6.20754,0.0183 -7.89649,0.65325 -8.2518,0.0229 -16.38086,1.68571 c -13.02343,1.30054 -23.69825,3.56319 -32.024622,6.78836 -5.00993,2.28733 -9.76402,10.00897 -14.26194,23.16552 -4.25538,13.58264 -3.74954,21.58618 1.51786,24.01057 5.82896,2.93278 14.326432,3.33158 25.492502,1.1969 4.81859,-0.65239 9.56922,-1.76566 14.1918,-3.3257 3.98817,-1.08539 7.9149,-2.40334 11.76131,-3.94692 6.14174,-2.71356 10.7888,-4.91681 13.9417,-6.61027 4.57345,-2.3133 8.99237,-4.94418 13.22665,-7.87558 9.44942,-6.51434 17.0946,-6.87201 22.93494,-1.07353 6.16231,5.88385 7.40385,16.58131 3.72446,32.09177 -2.24037,9.44116 -5.61967,17.16149 -10.13817,23.16093 -6.2966,7.68372 -16.07242,14.11451 -29.32668,19.29159 -4.93093,1.9493 -10.54929,3.90129 -16.85466,5.85649 -4.44835,1.36133 -9.94823,2.8095 -16.49927,4.34442 -11.11607,2.86932 -22.435702,4.80166 -33.849612,5.77883 l -7.89649,0.65326 -7.89649,0.65325 c -15.69997,1.31016 -31.49953,-0.11974 -46.74722,-4.23022 C 4.1724081,361.14129 4.0144781,358.82513 0.67601812,349.90797 -2.5089019,341.41567 6.4316781,312.7089 9.3928681,300.22846 10.433888,295.843 12.078988,290.36115 14.328168,283.78282 l 2.89976,-7.8619 2.2856,-7.46448 15.17881,-46.55024 c 5.61529,-17.88005 10.35011,-33.48191 14.2049,-46.80607 1.68459,-5.64952 3.32223,-13.99568 4.91338,-25.03846 l 2.39527,-12.26569 2.5181,-12.79104 c 1.63413,-7.14928 3.97628,-14.10258 6.98838,-20.7489 5.14717,-11.572688 13.30253,-18.425028 24.46599,-20.557008 2.1026,-0.17359 8.73741,-0.61214 19.903482,-1.31565 5.43893,-0.0128 10.8704,-0.4084 16.25803,-1.18317 7.64909,-0.44449 15.26657,-1.3595 22.8121,-2.74094 7.04237,-0.68843 16.34439,-2.2293 27.90527,-4.62305 11.48501,-2.01916 20.74718,-3.36815 27.78687,-4.04744 z"
     fill="#3f2a2c"
     id="path58"
     style="stroke-width:0.447667" />
  <path
     fill-rule="evenodd"
     clip-rule="evenodd"
     d="m 627.6691,259.77801 c 7.33265,-43.93022 35.58477,-71.74987 86.81174,-81.87612 -38.9926,18.70911 -68.34971,45.56153 -86.81174,81.87612 z"
     fill="#3f2a2c"
     id="path305"
     style="stroke-width:0.440844" />
  <path
     fill-rule="evenodd"
     clip-rule="evenodd"
     d="m 754.25568,70.035142 c 6.89951,4.6e-4 13.54712,2.5661 18.63884,7.1935 5.09622,4.62693 8.26524,10.9814 8.89287,17.81525 0.62321,6.833748 -1.3392,13.653028 -5.51158,19.119818 -4.16804,5.46632 -10.241,9.18436 -17.02553,10.42479 1.76791,1.18714 3.02317,3.65822 3.02317,6.51189 0.0133,1.41583 -0.3094,2.8145 -0.93703,4.08479 91.39069,2.33043 164.76143,75.03453 164.76143,164.35033 0,6.7626 2.5016,13.30528 -5.989,13.34049 -111.49689,0.47486 -229.58401,0.39135 -332.21901,-5.29839 l 327.99361,-4.49808 c 0.8397,-85.94339 -75.17849,-158.66943 -166.45431,-157.3855 -91.27583,1.28383 -147.26743,70.72982 -161.831,150.27551 1.9226,-87.69333 74.56401,-158.5155 164.74378,-160.78878 -0.62763,-1.26845 -0.95029,-2.6663 -0.93702,-4.08037 0,-2.53707 0.97231,-4.76629 2.4486,-6.06782 -7.33264,-0.0535 -14.34262,-3.00096 -19.48741,-8.19557 -5.14478,-5.19451 -8.00892,-12.20993 -7.95585,-19.503248 0.0575,-7.29322 3.01875,-14.26643 8.23871,-19.38582 5.22439,-5.11939 12.27409,-7.96597 19.60673,-7.91279 z m 5.1094,7.51886 c 4.06642,0 8.03546,1.19903 11.41667,3.44549 3.37687,2.24591 6.01113,5.43904 7.56694,9.17423 1.55581,3.73574 1.96241,7.84596 1.17124,11.811208 -0.79551,3.96561 -2.75358,7.60807 -5.62657,10.46654 -2.87289,2.85846 -6.53705,4.805 -10.52377,5.59342 -3.98682,0.78842 -8.11497,0.38297 -11.87191,-1.16521 -3.75252,-1.54772 -6.96134,-4.16829 -9.21996,-7.53074 -2.25853,-3.3619 -3.46081,-7.3148 -3.46081,-11.357828 0,-2.68436 0.53043,-5.34226 1.56465,-7.82172 1.03432,-2.47993 2.5459,-4.73339 4.45533,-6.63117 1.905,-1.89769 4.17238,-3.40319 6.66521,-4.42987 2.49283,-1.02677 5.1669,-1.55482 7.86298,-1.55435 z"
     fill="#3f2a2c"
     id="path307"
     style="stroke-width:0.440844" />
  <path
     fill-rule="evenodd"
     clip-rule="evenodd"
     d="m 757.00935,335.04996 c 112.48701,0 198.4855,4.55089 203.7142,6.46351 -4.5967,1.52136 -91.22719,6.46803 -203.7142,6.46803 -112.4871,0 -198.72418,-4.23429 -203.71869,-6.46803 4.67628,-1.98303 91.22717,-6.46351 203.71869,-6.46351 z"
     fill="#3f2a2c"
     id="path309"
     style="stroke-width:0.440844" />
  <path
     fill-rule="evenodd"
     clip-rule="evenodd"
     d="m 897.97835,17.205462 v 12.28947 c 0,12.4611 11.8587,23.20729 11.8587,37.37436 v 3.44282 c 0,5.92275 -6.5018,22.47739 -9.388,24.57914 0.884,-3.75943 2.9658,-11.331 2.9658,-15.72797 v -8.86435 c 0,-13.09854 -11.3636,-26.46097 -11.3636,-37.85354 v -6.38886 c 0.013,-6.70978 5.8033,-22.5169297 8.8929,-26.0565296757811 C 900.50655,5.2192223 897.97835,12.355572 897.97835,17.205462 Z"
     fill="#3f2a2c"
     id="path311"
     style="stroke-width:0.440844" />
  <path
     fill-rule="evenodd"
     clip-rule="evenodd"
     d="m 882.27875,76.133752 0.389,7.43968 c 0,14.61999 11.8542,25.898178 11.8542,37.374348 v 6.88123 c 0,5.60623 -6.263,19.60178 -8.8707,22.61813 l 2.4486,-15.73682 v -8.35428 c 0,-14.30772 -11.3636,-25.06276 -11.3636,-39.819068 v -1.47739 c 0,-8.84666 4.9679,-24.50873 8.8398,-29.02007 z"
     fill="#3f2a2c"
     id="path313"
     style="stroke-width:0.440844" />
  <path
     fill-rule="evenodd"
     clip-rule="evenodd"
     d="m 920.28125,105.63753 c -1.1668,11.87176 12.7736,28.25939 12.7736,39.87621 v 5.40826 c 0,6.29207 -6.515,21.29015 -9.1227,24.6231 l 2.7006,-19.21485 V 150.922 c 0,-14.21104 -11.3637,-26.95786 -11.3637,-38.3461 v -6.38876 c 0,-5.58421 6.5018,-24.790208 8.641,-27.564708 z"
     fill="#3f2a2c"
     id="path315"
     style="stroke-width:0.440844" />
  <path
     fill-rule="evenodd"
     clip-rule="evenodd"
     d="m 627.6691,259.77801 c 7.33265,-43.93022 35.58477,-71.74987 86.81174,-81.87612 -38.9926,18.70911 -68.34971,45.56153 -86.81174,81.87612 z"
     fill="#3f2a2c"
     id="path333"
     style="stroke-width:0.440844" />
  <path
     fill-rule="evenodd"
     clip-rule="evenodd"
     d="m 754.25568,70.035142 c 6.89951,4.6e-4 13.54712,2.5661 18.63884,7.1935 5.09622,4.62693 8.26524,10.9814 8.89287,17.81525 0.62321,6.833748 -1.3392,13.653028 -5.51158,19.119818 -4.16804,5.46632 -10.241,9.18436 -17.02553,10.42479 1.76791,1.18714 3.02317,3.65822 3.02317,6.51189 0.0133,1.41583 -0.3094,2.8145 -0.93703,4.08479 91.39069,2.33043 164.76143,75.03453 164.76143,164.35033 0,6.7626 2.5016,13.30528 -5.989,13.34049 -111.49689,0.47486 -229.58401,0.39135 -332.21901,-5.29839 l 327.99361,-4.49808 c 0.8397,-85.94339 -75.17849,-158.66943 -166.45431,-157.3855 -91.27583,1.28383 -147.26743,70.72982 -161.831,150.27551 1.9226,-87.69333 74.56401,-158.5155 164.74378,-160.78878 -0.62763,-1.26845 -0.95029,-2.6663 -0.93702,-4.08037 0,-2.53707 0.97231,-4.76629 2.4486,-6.06782 -7.33264,-0.0535 -14.34262,-3.00096 -19.48741,-8.19557 -5.14478,-5.19451 -8.00892,-12.20993 -7.95585,-19.503248 0.0575,-7.29322 3.01875,-14.26643 8.23871,-19.38582 5.22439,-5.11939 12.27409,-7.96597 19.60673,-7.91279 z m 5.1094,7.51886 c 4.06642,0 8.03546,1.19903 11.41667,3.44549 3.37687,2.24591 6.01113,5.43904 7.56694,9.17423 1.55581,3.73574 1.96241,7.84596 1.17124,11.811208 -0.79551,3.96561 -2.75358,7.60807 -5.62657,10.46654 -2.87289,2.85846 -6.53705,4.805 -10.52377,5.59342 -3.98682,0.78842 -8.11497,0.38297 -11.87191,-1.16521 -3.75252,-1.54772 -6.96134,-4.16829 -9.21996,-7.53074 -2.25853,-3.3619 -3.46081,-7.3148 -3.46081,-11.357828 0,-2.68436 0.53043,-5.34226 1.56465,-7.82172 1.03432,-2.47993 2.5459,-4.73339 4.45533,-6.63117 1.905,-1.89769 4.17238,-3.40319 6.66521,-4.42987 2.49283,-1.02677 5.1669,-1.55482 7.86298,-1.55435 z"
     fill="#3f2a2c"
     id="path335"
     style="stroke-width:0.440844" />
  <path
     fill-rule="evenodd"
     clip-rule="evenodd"
     d="m 757.00935,335.04996 c 112.48701,0 198.4855,4.55089 203.7142,6.46351 -4.5967,1.52136 -91.22719,6.46803 -203.7142,6.46803 -112.4871,0 -198.72418,-4.23429 -203.71869,-6.46803 4.67628,-1.98303 91.22717,-6.46351 203.71869,-6.46351 z"
     fill="#3f2a2c"
     id="path337"
     style="stroke-width:0.440844" />
  <path
     fill-rule="evenodd"
     clip-rule="evenodd"
     d="m 897.97835,17.205462 v 12.28947 c 0,12.4611 11.8587,23.20729 11.8587,37.37436 v 3.44282 c 0,5.92275 -6.5018,22.47739 -9.388,24.57914 0.884,-3.75943 2.9658,-11.331 2.9658,-15.72797 v -8.86435 c 0,-13.09854 -11.3636,-26.46097 -11.3636,-37.85354 v -6.38886 c 0.013,-6.70978 5.8033,-22.5169297 8.8929,-26.0565296757811 C 900.50655,5.2192223 897.97835,12.355572 897.97835,17.205462 Z"
     fill="#3f2a2c"
     id="path339"
     style="stroke-width:0.440844" />
  <path
     fill-rule="evenodd"
     clip-rule="evenodd"
     d="m 882.27875,76.133752 0.389,7.43968 c 0,14.61999 11.8542,25.898178 11.8542,37.374348 v 6.88123 c 0,5.60623 -6.263,19.60178 -8.8707,22.61813 l 2.4486,-15.73682 v -8.35428 c 0,-14.30772 -11.3636,-25.06276 -11.3636,-39.819068 v -1.47739 c 0,-8.84666 4.9679,-24.50873 8.8398,-29.02007 z"
     fill="#3f2a2c"
     id="path341"
     style="stroke-width:0.440844" />
  <path
     fill-rule="evenodd"
     clip-rule="evenodd"
     d="m 920.28125,105.63753 c -1.1668,11.87176 12.7736,28.25939 12.7736,39.87621 v 5.40826 c 0,6.29207 -6.515,21.29015 -9.1227,24.6231 l 2.7006,-19.21485 V 150.922 c 0,-14.21104 -11.3637,-26.95786 -11.3637,-38.3461 v -6.38876 c 0,-5.58421 6.5018,-24.790208 8.641,-27.564708 z"
     fill="#3f2a2c"
     id="path343"
     style="stroke-width:0.440844" />
  <path
     style="fill:#ffffff;stroke:#000000;stroke-width:0;stroke-linejoin:round"
     d="M 33.99619,367.51017 C 17.166128,363.73045 8.2199002,359.45722 4.1577648,353.25762 0.08470254,347.04134 0.21418073,344.04254 5.518486,321.74239 8.7426451,308.1875 20.017705,270.26249 30.574172,237.46458 41.130643,204.66667 52.600733,163.58444 56.063266,146.17073 62.78282,112.37686 70.434106,93.707363 79.567487,88.819326 c 3.103879,-1.661146 20.725823,-4.354388 39.159873,-5.984983 18.43405,-1.630596 44.13432,-5.008525 57.11172,-7.506511 24.69529,-4.753535 64.30903,-6.246848 73.30209,-2.763259 2.8905,1.119676 6.51938,4.397429 8.06417,7.283896 4.25064,7.942392 -4.66949,34.156391 -15.72527,46.212611 l -9.41912,10.27146 -45.43038,4.14874 c -28.95639,2.64432 -47.8627,5.74245 -52.13798,8.54372 -8.82253,5.78074 -20.20725,24.41683 -18.16592,29.73646 2.64031,6.88053 19.73251,8.15844 43.31565,3.23853 39.33165,-8.20536 50.2472,-5.80079 50.2472,11.06888 0,9.99922 -16.55192,42.63174 -23.40916,46.15174 -2.57105,1.31979 -18.20335,3.29548 -34.73844,4.39042 -40.61058,2.68921 -53.991113,6.84334 -61.067,18.95893 -9.533835,16.32419 -11.262873,29.6878 -4.691371,36.2593 3.112097,3.1121 8.70458,5.65836 12.427739,5.65836 13.394002,0 41.857402,-9.24816 61.463522,-19.97035 19.69075,-10.76848 20.07716,-10.84786 26.13193,-5.36837 12.26125,11.09628 5.80816,43.26368 -11.88598,59.24927 -22.79165,20.59088 -103.450209,37.34833 -140.12457,29.112 z"
     id="path1169" />
  <path
     style="fill:#ffffff;stroke:#000000;stroke-width:0;stroke-linejoin:round"
     d="m 276.26944,350.44295 c -6.67249,-6.6725 -7.25198,-9.46627 -7.20478,-34.73524 0.0282,-15.11353 2.07369,-36.79114 4.54546,-48.17247 2.47177,-11.38134 5.28524,-24.68419 6.25216,-29.56191 l 1.75803,-8.86857 -12.38082,11.82476 c -19.99974,19.10151 -30.20695,43.38649 -33.22183,79.04132 -1.40029,16.56021 -3.72962,31.29312 -5.1763,32.7398 -4.19548,4.19548 -19.60673,-0.58921 -26.8987,-8.35115 -9.6774,-10.30112 -6.88197,-21.41531 18.14163,-72.1283 20.44356,-41.43104 22.45251,-44.29208 51.10268,-72.77759 41.35512,-41.11744 63.69398,-49.70639 72.70425,-27.95368 3.31684,8.00756 2.57091,12.59288 -6.859,42.16332 -19.80022,62.08981 -21.4621,92.23494 -6.64685,120.56856 l 7.7527,14.82676 -10.3398,4.32024 c -5.68689,2.37614 -18.42471,4.32025 -28.30626,4.32025 -15.13392,0 -19.11045,-1.14398 -25.22257,-7.2561 z"
     id="path1171" />
  <path
     style="fill:#ffffff;stroke:#000000;stroke-width:0;stroke-linejoin:round"
     d="m 463.16289,350.48675 c -6.21812,-2.23685 -12.06268,-4.824 -12.9879,-5.74922 -1.64792,-1.64792 -2.54873,-11.39971 -3.3767,-36.55467 -0.4953,-15.04827 -3.14382,-15.79268 -10.69681,-3.00649 -16.12891,27.30407 -39.44151,43.00589 -57.52898,38.74771 -12.46905,-2.93548 -26.07524,-15.02313 -29.87697,-26.5425 -7.44749,-22.56611 4.13824,-69.83877 30.84604,-125.85952 14.98887,-31.43979 19.2601,-36.29816 29.62458,-33.69684 11.05203,2.77388 25.39385,16.23478 25.39385,23.83407 0,3.69517 -5.22339,17.87748 -11.60753,31.51626 -13.98888,29.8852 -18.66534,47.29792 -17.41471,64.84351 0.77065,10.81186 2.06229,13.32603 7.22449,14.06248 8.83008,1.2597 23.87042,-17.21816 47.65158,-58.54249 38.66,-67.17918 49.79403,-79.25354 64.31057,-69.74193 15.15443,9.92956 15.48434,16.61991 2.23397,45.30363 -15.19299,32.889 -20.51722,48.8727 -24.42226,73.3173 -3.5134,21.99299 -1.78727,36.10723 6.40992,52.41267 l 5.59428,11.12786 -6.73301,2.51113 c -13.94995,5.20272 -33.35189,6.0793 -44.64441,2.01704 z"
     id="path1173" />
  <path
     style="fill:#ffffff;stroke:#000000;stroke-width:0;stroke-linejoin:round"
     d="m 731.65714,307.29919 c 48.77715,-1.08384 110.30286,-2.15983 136.72381,-2.39109 l 48.0381,-0.42048 v -11.20367 c 0,-29.78694 -18.28788,-70.63218 -43.11808,-96.3025 -51.66554,-53.41364 -133.7003,-67.36686 -197.50642,-33.59371 -22.53234,11.92657 -50.0907,39.34542 -64.60217,64.27514 -6.09714,10.47448 -11.08571,17.04907 -11.08571,14.61022 0,-9.56535 23.16404,-42.93724 41.78986,-60.20566 27.41994,-25.42166 59.03632,-40.15504 96.10818,-44.78686 12.76701,-1.59513 15.82386,-3.04254 15.82386,-7.4925 0,-3.37309 -2.78615,-6.21472 -7.17291,-7.31572 -18.97293,-4.7619 -24.72841,-31.42826 -9.59315,-44.447061 8.51451,-7.323874 20.87703,-9.105573 28.59082,-4.120537 3.36491,2.174568 2.1173,2.876572 -5.17333,2.910923 -12.62114,0.05947 -21.43238,9.004785 -21.43238,21.758522 0,12.429593 7.64016,19.645223 20.92611,19.763303 8.30327,0.0738 9.18774,0.62933 4.94056,3.10309 -2.84534,1.65725 -5.17334,5.45438 -5.17334,8.43805 0,4.34049 3.16305,5.82007 15.82386,7.40193 80.20492,10.02094 142.12632,72.98985 148.74245,151.25869 L 926.15517,310.4 784.5633,309.8349 642.97143,309.2698 Z"
     id="path1175" />
  <path
     style="fill:#ffffff;stroke:#000000;stroke-width:0;stroke-linejoin:round"
     d=""
     id="path1177" />
  <path
     style="fill:#ffffff;fill-opacity:1;stroke:#000000;stroke-width:0;stroke-linejoin:round"
     d="m 622.92202,344.95212 c -71.7695,-2.97367 -66.52101,-2.41362 -44.94236,-4.79567 24.8272,-2.74066 314.64393,-3.16318 346.99682,-0.50588 l 25.08411,2.06027 -20.90342,1.39394 c -33.28388,2.21951 -263.70503,3.60951 -306.23515,1.84734 z"
     id="path1635" />
  <path
     style="fill:#ffffff;fill-opacity:1;stroke:#000000;stroke-width:0;stroke-linejoin:round"
     d="m 1000.2288,366.40392 c -12.18514,-2.94776 -19.31862,-20.73858 -16.82725,-41.96699 3.4182,-29.12574 17.36115,-70.40862 37.13765,-109.95884 22.6823,-45.36153 57.6076,-89.41657 95.459,-120.412685 29.7613,-24.371266 45.3134,-31.169396 56.999,-24.915455 6.0004,3.211309 12.1271,18.00211 12.181,29.406616 0.037,7.922744 -11.7279,60.879604 -15.9974,72.005734 -2.5147,6.55317 2.79,2.31206 7.4596,-5.96394 9.3198,-16.51757 39.3706,-54.77202 55.8969,-71.156312 25.7405,-25.519321 43.3046,-31.827229 54.7118,-19.649049 11.6303,12.416302 11.3877,24.115751 -1.5863,76.505351 -12.8808,52.01284 -16.8336,78.20088 -16.7941,111.26271 0.036,30.12663 3.2215,46.03045 13.6007,67.90254 3.9995,8.42816 7.2718,16.30517 7.2718,17.50449 0,3.89437 -13.0882,10.26958 -28.0867,13.68091 -24.5459,5.58284 -42.8682,0.3203 -51.7333,-14.85886 -10.4131,-17.82985 -9.1385,-90.56868 2.5762,-147.01802 6.5532,-31.57719 5.2296,-32.62568 -11.4545,-9.07355 -23.1176,32.63382 -33.4278,61.28214 -35.9183,99.80322 l -1.3939,21.56138 7.9839,17.01347 c 7.919,16.87504 7.9507,17.04666 3.9028,21.09454 -6.4157,6.41576 -26.3553,12.45804 -41.1115,12.45804 -16.0079,0 -29.9452,-6.25068 -35.4866,-15.91526 -9.7757,-17.0492 -8.791,-90.92197 1.9133,-143.53361 2.9891,-14.69168 4.8405,-27.30635 4.1143,-28.03261 -2.6943,-2.69425 -10.5256,7.1044 -17.066,21.35335 -16.4763,35.89491 -23.07,60.25887 -32.2719,119.24725 -3.4489,22.10922 -7.3019,40.27636 -8.8465,41.71251 -2.8866,2.68379 -34.3478,11.61106 -39.4598,11.19692 -1.6463,-0.13336 -4.8745,-0.69761 -7.1739,-1.25385 z"
     id="path1637" />
  <path
     style="fill:#ffffff;fill-opacity:1;stroke:#000000;stroke-width:0;stroke-linejoin:round"
     d="m 924.35064,173.67619 c 1.97941,-12.75301 2.48469,-17.75129 2.29737,-22.72571 -0.25288,-6.71565 -1.08954,-9.75768 -5.58975,-20.32381 -5.34115,-12.54058 -5.50841,-13.16556 -5.53818,-20.69334 -0.0228,-5.7552 0.0635,-6.62271 1.02837,-10.346663 1.91036,-7.372897 6.27491,-19.770291 6.78176,-19.263441 0.0962,0.09616 -0.60597,5.966342 -1.56029,13.044852 -1.27439,9.452552 -1.6843,13.565222 -1.54372,15.488132 0.23836,3.26035 1.82329,8.05411 4.74563,14.35354 4.14618,8.93755 6.21293,13.83825 6.97863,16.54781 1.08247,3.83049 1.32984,9.61643 0.59167,13.83939 -0.86848,4.96847 -4.63988,14.99465 -7.41392,19.70972 l -0.97831,1.66285 z"
     id="path1639" />
  <path
     style="fill:#ffffff;fill-opacity:1;stroke:#000000;stroke-width:0;stroke-linejoin:round"
     d="m 886.4924,146.70095 c 0.19151,-1.21943 0.6845,-4.19051 1.09552,-6.6024 0.41103,-2.41189 0.74024,-7.56674 0.73158,-11.45523 -0.0172,-7.73471 -0.95993,-11.13706 -7.38541,-26.65475 -3.93821,-9.510866 -4.66459,-16.915242 -2.58607,-26.360965 1.4107,-6.41086 5.64224,-18.083488 6.07977,-16.770918 0.15335,0.46005 -0.3498,4.616069 -1.1181,9.235598 -1.09174,6.564218 -1.27448,9.932982 -0.83643,15.420096 0.60932,7.632588 1.86769,11.562235 7.80982,24.388569 l 3.59502,7.76 -0.0118,8.49905 c -0.0113,8.14767 -0.12783,8.77847 -2.81788,15.25751 -1.54334,3.71716 -3.27815,7.37545 -3.85513,8.12953 -0.96621,1.26276 -1.02157,1.19594 -0.70087,-0.84609 z"
     id="path1641" />
  <path
     style="fill:#ffffff;fill-opacity:1;stroke:#000000;stroke-width:0;stroke-linejoin:round"
     d="m 903.75221,75.117443 c -0.0905,-10.795567 -0.78909,-13.920082 -5.7173,-25.569469 -5.07077,-11.986338 -5.54442,-14.204237 -4.89274,-22.910476 0.39684,-5.301672 1.63934,-11.850115 2.76111,-14.552098 1.92902,-4.6463979 2.03958,-4.1256093 2.03958,9.607619 0,13.487225 0.36728,15.309039 5.16226,25.606029 4.25149,9.129861 5.15707,12.780786 5.13284,20.693333 -0.0162,5.284191 -1.00891,11.816183 -2.20607,14.515538 -2.14175,4.829236 -2.1783,4.71075 -2.27968,-7.390476 z"
     id="path1645" />
  <path
     style="fill:#ffffff;fill-opacity:1;stroke:#000000;stroke-width:0;stroke-linejoin:round"
     d="m 1376.9431,350.4149 c -8.6878,-2.26383 -13.9582,-6.70394 -15.5672,-13.11491 -2.6656,-10.62071 3.4682,-54.93951 9.971,-72.0431 8.0411,-21.14952 5.0463,-25.24212 -8.8266,-12.06247 -17.8679,16.97504 -28.2455,38.84086 -31.4749,66.31854 -2.9448,25.05563 -10.6506,30.36576 -24.2828,16.73353 -10.0143,-10.01424 -8.1927,-17.95725 12.4188,-54.15151 28.8916,-50.73433 76.1342,-93.96417 102.6864,-93.96417 17.5364,0 18.2114,11.41914 2.8698,48.55435 -11.3782,27.54185 -13.5811,38.13049 -13.3817,64.32414 0.1313,17.24532 1.0413,34.9955 2.0223,39.44485 2.2046,9.99943 -16.5794,15.13467 -36.4351,9.96075 z"
     id="path1647" />
  <path
     style="fill:#ffffff;fill-opacity:1;stroke:#000000;stroke-width:0;stroke-linejoin:round"
     d="m 1620.0153,352.37241 c -24.5854,-6.15903 -25.233,-24.76199 -3.533,-101.49501 2.8839,-10.19744 2.7329,-10.27557 -7.2125,-3.73363 -17.2084,11.31946 -33.3852,41.91335 -36.1072,68.28651 -1.3938,13.50481 -4.7916,24.83616 -7.7926,25.98777 -9.398,3.60635 -22.6974,-6.68401 -22.6974,-17.56208 0,-12.97717 -1.9962,-12.89159 -18.2095,0.78062 -26.1512,22.05246 -58.2667,28.42779 -81.8279,16.24383 -14.2845,-7.38682 -17.0341,-13.72902 -16.9809,-39.16788 0.073,-34.98559 35.1284,-90.90676 67.4708,-107.63168 14.0366,-7.2586 37.7092,-7.7547 44.5307,-0.93323 8.2604,8.26036 5.7001,32.79912 -5.3979,51.73646 -11.0233,18.80995 -27.5818,30.98485 -53.3407,39.21966 -16.73,5.34839 -19.0584,10.68388 -10.0429,23.01334 8.3004,11.35138 34.1651,6.46879 62.8139,-11.85761 12.9396,-8.27736 23.5265,-14.03904 23.5265,-12.80372 0,1.23531 -3.0613,8.26685 -6.8029,15.62564 l -6.803,13.37961 11.3809,-10.45171 c 13.5963,-12.48635 24.4615,-32.08689 20.9428,-37.78031 -3.5404,-5.72851 42.4371,-52.92413 63.7022,-65.38997 21.0822,-12.35859 36.1584,-11.64018 38.0688,1.81404 0.7366,5.18755 -4.5546,24.71509 -11.7581,43.39453 -16.6042,43.05597 -19.7451,67.79826 -11.2022,88.24424 3.5671,8.53731 5.1878,16.28288 3.6016,17.21239 -5.984,3.50658 -28.2917,5.88179 -36.3295,3.86819 z m -130.7591,-96.07125 c 9.0958,-10.05067 20.4454,-37.03752 17.0181,-40.46489 -6.5268,-6.52679 -14.897,-1.13451 -26.404,17.01023 -14.3497,22.62719 -17.0992,41.68039 -5.087,35.25164 4.0496,-2.1673 10.5625,-7.47594 14.4729,-11.79698 z"
     id="path1649" />
  <path
     style="fill:#ffffff;fill-opacity:1;stroke:#000000;stroke-width:0;stroke-linejoin:round"
     d="m 1752.543,346.16069 c -2.7592,-2.75925 -5.0168,-14.21604 -5.0168,-25.45952 v -20.4427 l -16.3971,20.74388 c -17.5438,22.19453 -31.0531,28.41039 -47.8592,22.02074 -28.5053,-10.8377 -25.2738,-59.91784 8.3399,-126.6657 13.7804,-27.36431 18.5225,-31.08358 32.6968,-25.64438 14.624,5.61172 15.1897,16.43361 2.3407,44.77154 -16.2016,35.73173 -20.3591,60.2205 -10.8437,63.87188 10.3864,3.98564 21.5902,-8.39788 47.6759,-52.69603 29.6552,-50.35968 39.3271,-60.56269 51.324,-54.14213 11.1673,5.97653 9.3954,20.53384 -7.0986,58.32281 -12.3979,28.40456 -15.8879,64.94477 -8.4852,88.83955 l 3.5618,11.49688 h -22.6108 c -12.436,0 -24.8684,-2.25757 -27.6277,-5.01682 z"
     id="path1651" />
  <path
     style="fill:#ffffff;fill-opacity:1;stroke:#000000;stroke-width:0;stroke-linejoin:round"
     d="m 629.73339,251.88625 c 1.24419,-6.27299 7.3089,-21.52097 11.04343,-27.76559 5.02128,-8.3962 17.60735,-21.49829 26.03118,-27.09844 8.80136,-5.85114 20.16918,-11.09476 31.63373,-14.59166 4.79844,-1.46362 9.11982,-2.66112 9.60307,-2.66112 0.48325,0 -4.04125,2.95486 -10.05445,6.56635 -16.31161,9.79668 -24.04924,15.63706 -36.17372,27.304 -11.42955,10.99824 -20.20124,21.73118 -28.13405,34.42449 -4.0646,6.50377 -4.58005,7.00261 -3.94919,3.82197 z"
     id="path1655" />
</svg>
